<svg width="90" height="28" viewBox="0 0 90 28" fill="none" xmlns="http://www.w3.org/2000/svg">
<path d="M90 0H0V28H90V0Z" fill="#68217A"/>
<path d="M39.3389 18.1416C38.7985 18.1416 38.2988 18.0618 37.8398 17.9023C37.3841 17.7428 36.9919 17.5052 36.6631 17.1895C36.3343 16.8737 36.0788 16.4798 35.8965 16.0078C35.7174 15.5358 35.6279 14.9906 35.6279 14.3721C35.6279 13.7959 35.7142 13.2734 35.8867 12.8047C36.0592 12.3359 36.3099 11.9339 36.6387 11.5986C36.9544 11.2764 37.3451 11.0273 37.8105 10.8516C38.2793 10.6758 38.7904 10.5879 39.3438 10.5879C39.6497 10.5879 39.9248 10.6058 40.1689 10.6416C40.4163 10.6742 40.6442 10.7181 40.8525 10.7734C41.0706 10.8353 41.2676 10.9053 41.4434 10.9834C41.6224 11.0583 41.7786 11.1283 41.9121 11.1934V12.9561H41.6973C41.6061 12.8779 41.4906 12.7852 41.3506 12.6777C41.2139 12.5703 41.0576 12.4645 40.8818 12.3604C40.7028 12.2562 40.5091 12.1683 40.3008 12.0967C40.0924 12.0251 39.8695 11.9893 39.6318 11.9893C39.3682 11.9893 39.1175 12.0316 38.8799 12.1162C38.6423 12.1976 38.4225 12.3343 38.2207 12.5264C38.0286 12.7119 37.8724 12.9577 37.752 13.2637C37.6348 13.5697 37.5762 13.9408 37.5762 14.377C37.5762 14.8327 37.6396 15.2135 37.7666 15.5195C37.8968 15.8255 38.0596 16.0664 38.2549 16.2422C38.4535 16.4212 38.6748 16.5498 38.9189 16.6279C39.1631 16.7028 39.404 16.7402 39.6416 16.7402C39.8695 16.7402 40.0941 16.7061 40.3154 16.6377C40.54 16.5693 40.7467 16.4766 40.9355 16.3594C41.0951 16.265 41.2432 16.1641 41.3799 16.0566C41.5166 15.9492 41.6289 15.8564 41.7168 15.7783H41.9121V17.5166C41.7298 17.598 41.5557 17.6745 41.3896 17.7461C41.2236 17.8177 41.0495 17.8796 40.8672 17.9316C40.6296 18 40.4066 18.0521 40.1982 18.0879C39.9899 18.1237 39.7035 18.1416 39.3389 18.1416ZM46.624 15.4707H42.8984V14.0645H46.624V15.4707ZM52.7617 16.2617C52.7617 16.8281 52.5078 17.2855 52 17.6338C51.4922 17.9788 50.7972 18.1514 49.915 18.1514C49.4268 18.1514 48.984 18.1058 48.5869 18.0146C48.1898 17.9235 47.8708 17.8226 47.6299 17.7119V16.2666H47.791C47.8789 16.3285 47.9798 16.3968 48.0938 16.4717C48.2109 16.5433 48.3753 16.6214 48.5869 16.7061C48.7692 16.7809 48.9759 16.846 49.207 16.9014C49.4382 16.9535 49.6855 16.9795 49.9492 16.9795C50.2943 16.9795 50.5498 16.9421 50.7158 16.8672C50.8818 16.7891 50.9648 16.6751 50.9648 16.5254C50.9648 16.3919 50.916 16.2959 50.8184 16.2373C50.7207 16.1755 50.5352 16.1169 50.2617 16.0615C50.1315 16.0322 49.9541 16.0013 49.7295 15.9688C49.5081 15.9329 49.3063 15.8906 49.124 15.8418C48.626 15.7116 48.2565 15.5098 48.0156 15.2363C47.7747 14.9596 47.6543 14.6162 47.6543 14.2061C47.6543 13.6787 47.9033 13.2409 48.4014 12.8926C48.9027 12.541 49.5863 12.3652 50.4521 12.3652C50.8623 12.3652 51.2546 12.4076 51.6289 12.4922C52.0065 12.5736 52.3011 12.6615 52.5127 12.7559V14.1426H52.3613C52.1009 13.9635 51.8031 13.8187 51.4678 13.708C51.1357 13.5941 50.7988 13.5371 50.457 13.5371C50.1738 13.5371 49.9346 13.5762 49.7393 13.6543C49.5472 13.7324 49.4512 13.8431 49.4512 13.9863C49.4512 14.1165 49.4951 14.2158 49.583 14.2842C49.6709 14.3525 49.8776 14.4209 50.2031 14.4893C50.3822 14.5251 50.5742 14.5609 50.7793 14.5967C50.9876 14.6292 51.196 14.6715 51.4043 14.7236C51.8665 14.8441 52.2083 15.0345 52.4297 15.2949C52.651 15.5521 52.7617 15.8743 52.7617 16.2617ZM59.4414 18H57.6738V15.2803C57.6738 15.0589 57.6624 14.8392 57.6396 14.6211C57.6169 14.3997 57.5778 14.237 57.5225 14.1328C57.4574 14.0124 57.3613 13.9245 57.2344 13.8691C57.1107 13.8138 56.9365 13.7861 56.7119 13.7861C56.5524 13.7861 56.3896 13.8122 56.2236 13.8643C56.0609 13.9163 55.8835 13.9993 55.6914 14.1133V18H53.9336V10.4023H55.6914V13.1221C56.0039 12.8779 56.3034 12.6908 56.5898 12.5605C56.8796 12.4303 57.2002 12.3652 57.5518 12.3652C58.1442 12.3652 58.6064 12.5378 58.9385 12.8828C59.2738 13.2279 59.4414 13.7438 59.4414 14.4307V18ZM64.3828 16.5693V15.4268C64.1452 15.4463 63.888 15.474 63.6113 15.5098C63.3346 15.5423 63.1247 15.5814 62.9814 15.627C62.8057 15.6823 62.6706 15.7637 62.5762 15.8711C62.485 15.9753 62.4395 16.1136 62.4395 16.2861C62.4395 16.4001 62.4492 16.4928 62.4688 16.5645C62.4883 16.6361 62.5371 16.7044 62.6152 16.7695C62.6901 16.8346 62.7796 16.8835 62.8838 16.916C62.988 16.9453 63.1507 16.96 63.3721 16.96C63.5479 16.96 63.7253 16.9242 63.9043 16.8525C64.0866 16.7809 64.2461 16.6865 64.3828 16.5693ZM64.3828 17.4189C64.2884 17.4906 64.1712 17.5768 64.0312 17.6777C63.8913 17.7786 63.7594 17.8584 63.6357 17.917C63.4632 17.9951 63.2842 18.0521 63.0986 18.0879C62.9131 18.127 62.7096 18.1465 62.4883 18.1465C61.9674 18.1465 61.5312 17.9854 61.1797 17.6631C60.8281 17.3408 60.6523 16.929 60.6523 16.4277C60.6523 16.0273 60.7419 15.7002 60.9209 15.4463C61.0999 15.1924 61.3538 14.9922 61.6826 14.8457C62.0081 14.6992 62.4118 14.5951 62.8936 14.5332C63.3753 14.4714 63.875 14.4258 64.3926 14.3965V14.3672C64.3926 14.0645 64.2689 13.8561 64.0215 13.7422C63.7741 13.625 63.4095 13.5664 62.9277 13.5664C62.638 13.5664 62.3288 13.6185 62 13.7227C61.6712 13.8236 61.4352 13.9017 61.292 13.957H61.1309V12.6338C61.3164 12.585 61.6175 12.528 62.0342 12.4629C62.4541 12.3945 62.874 12.3604 63.2939 12.3604C64.2933 12.3604 65.0143 12.515 65.457 12.8242C65.903 13.1302 66.126 13.612 66.126 14.2695V18H64.3828V17.4189ZM71.7168 14.1914H71.5605C71.4857 14.1654 71.3652 14.1458 71.1992 14.1328C71.0332 14.1198 70.8949 14.1133 70.7842 14.1133C70.5335 14.1133 70.3122 14.1296 70.1201 14.1621C69.9281 14.1947 69.7214 14.25 69.5 14.3281V18H67.7422V12.5166H69.5V13.3223C69.8874 12.9902 70.2243 12.7705 70.5107 12.6631C70.7972 12.5524 71.0609 12.4971 71.3018 12.4971C71.3636 12.4971 71.4336 12.4987 71.5117 12.502C71.5898 12.5052 71.6582 12.5101 71.7168 12.5166V14.1914ZM78.4355 15.1826C78.4355 15.6351 78.3656 16.0469 78.2256 16.418C78.0889 16.7891 77.9082 17.0951 77.6836 17.3359C77.4492 17.5898 77.1839 17.7819 76.8877 17.9121C76.5915 18.0423 76.2741 18.1074 75.9355 18.1074C75.623 18.1074 75.3577 18.0732 75.1396 18.0049C74.9215 17.9398 74.6986 17.847 74.4707 17.7266V20.0117H72.7129V12.5166H74.4707V13.0879C74.7409 12.873 75.016 12.6989 75.2959 12.5654C75.5791 12.432 75.9046 12.3652 76.2725 12.3652C76.9561 12.3652 77.4867 12.6159 77.8643 13.1172C78.2451 13.6185 78.4355 14.307 78.4355 15.1826ZM76.624 15.2168C76.624 14.6829 76.5329 14.2956 76.3506 14.0547C76.1683 13.8138 75.8802 13.6934 75.4863 13.6934C75.3203 13.6934 75.1494 13.7194 74.9736 13.7715C74.7979 13.8203 74.6302 13.8919 74.4707 13.9863V16.7451C74.5879 16.7907 74.7132 16.82 74.8467 16.833C74.9801 16.846 75.112 16.8525 75.2422 16.8525C75.7077 16.8525 76.0544 16.7174 76.2822 16.4473C76.5101 16.1738 76.624 15.7637 76.624 15.2168Z" fill="white"/>
<rect x="9" y="6" width="15" height="15" rx="1" fill="white"/>
<path d="M18.4146 15.1848C17.9024 16.2152 16.9268 16.9114 15.8171 16.9114C14.1707 16.9114 12.8293 15.3797 12.8293 13.5C12.8293 11.6203 14.1707 10.0886 15.8171 10.0886C16.9268 10.0886 17.9024 10.7848 18.4146 11.8291L20 10.7848C19.1707 9.12785 17.6098 8 15.8171 8C13.1585 8 11 10.4646 11 13.5C11 16.5354 13.1585 19 15.8171 19C17.5976 19 19.1585 17.8861 19.9878 16.243L18.4146 15.1848V15.1848ZM19.8415 13.8063L19.9512 13.2076H19.439V12.5532H20.061L20.2073 11.6899H20.8049L20.6585 12.5392H21.122L21.2683 11.6899H21.8537L21.7073 12.5392H22V13.1937H21.5976L21.4878 13.7924H22V14.4468H21.378L21.2317 15.2823H20.6341L20.7805 14.4468H20.3171L20.1707 15.2823H19.5854L19.7317 14.4468H19.439V13.7924H19.8415V13.8063ZM20.4268 13.8063H20.8902L21 13.2076H20.5366L20.4268 13.8063Z" fill="#68217A"/>
</svg>
