<svg width="131" height="28" viewBox="0 0 131 28" fill="none" xmlns="http://www.w3.org/2000/svg">
<rect width="131" height="28" fill="#68217A"/>
<path d="M52.6973 16.7256L55.0654 17.3237C54.569 19.2687 53.6738 20.7539 52.3799 21.7793C51.0941 22.7965 49.5194 23.3052 47.6558 23.3052C45.7271 23.3052 44.1564 22.9146 42.9438 22.1333C41.7394 21.3439 40.8198 20.2046 40.1851 18.7153C39.5584 17.2261 39.2451 15.627 39.2451 13.918C39.2451 12.0544 39.5991 10.4308 40.3071 9.04736C41.0233 7.65576 42.0365 6.60189 43.3467 5.88574C44.665 5.16146 46.1136 4.79932 47.6924 4.79932C49.4827 4.79932 50.9883 5.25505 52.209 6.1665C53.4297 7.07796 54.2801 8.3597 54.7603 10.0117L52.4287 10.561C52.0137 9.25895 51.4115 8.31087 50.6221 7.7168C49.8327 7.12272 48.8398 6.82568 47.6436 6.82568C46.2682 6.82568 45.1167 7.15527 44.189 7.81445C43.2694 8.47363 42.6224 9.36068 42.248 10.4756C41.8737 11.5824 41.6865 12.7257 41.6865 13.9058C41.6865 15.4276 41.9062 16.7581 42.3457 17.8975C42.7933 19.0286 43.485 19.875 44.4209 20.4365C45.3568 20.998 46.37 21.2788 47.4604 21.2788C48.7869 21.2788 49.91 20.8963 50.8296 20.1313C51.7492 19.3664 52.3717 18.2311 52.6973 16.7256ZM56.8354 19.1304L59.0083 18.7886C59.1304 19.6593 59.4681 20.3267 60.0215 20.7905C60.583 21.2544 61.3643 21.4863 62.3652 21.4863C63.3743 21.4863 64.123 21.2829 64.6113 20.876C65.0996 20.4609 65.3438 19.9767 65.3438 19.4233C65.3438 18.9269 65.1281 18.5363 64.6968 18.2515C64.3957 18.0562 63.647 17.8079 62.4507 17.5068C60.8394 17.0999 59.7204 16.75 59.0938 16.457C58.4753 16.1559 58.0033 15.745 57.6777 15.2241C57.3604 14.6951 57.2017 14.1133 57.2017 13.4785C57.2017 12.9007 57.3319 12.3677 57.5923 11.8794C57.8608 11.383 58.223 10.972 58.6787 10.6465C59.0205 10.3942 59.4844 10.1826 60.0703 10.0117C60.6644 9.83268 61.2992 9.74316 61.9746 9.74316C62.9919 9.74316 63.883 9.88965 64.6479 10.1826C65.4211 10.4756 65.9907 10.8743 66.3569 11.3789C66.7231 11.8753 66.9754 12.5426 67.1138 13.3809L64.9653 13.6738C64.8677 13.0065 64.5828 12.4857 64.1108 12.1113C63.647 11.737 62.9878 11.5498 62.1333 11.5498C61.1242 11.5498 60.404 11.7166 59.9727 12.0503C59.5413 12.384 59.3257 12.7746 59.3257 13.2222C59.3257 13.507 59.4152 13.7633 59.5942 13.9912C59.7733 14.2272 60.054 14.4225 60.4365 14.5771C60.6562 14.6585 61.3032 14.8457 62.3774 15.1387C63.9318 15.5537 65.0142 15.8955 65.6245 16.1641C66.243 16.4245 66.7272 16.807 67.0771 17.3115C67.4271 17.8161 67.6021 18.4427 67.6021 19.1914C67.6021 19.9238 67.3864 20.6156 66.9551 21.2666C66.5319 21.9095 65.9175 22.41 65.1118 22.7681C64.3062 23.118 63.3947 23.293 62.3774 23.293C60.6929 23.293 59.4071 22.943 58.52 22.2432C57.6411 21.5433 57.0796 20.5057 56.8354 19.1304ZM70.2144 23V5.10449H72.4116V11.5254C73.437 10.3372 74.731 9.74316 76.2935 9.74316C77.2537 9.74316 78.0879 9.93441 78.7959 10.3169C79.5039 10.6912 80.0085 11.2121 80.3096 11.8794C80.6188 12.5467 80.7734 13.5151 80.7734 14.7847V23H78.5762V14.7847C78.5762 13.686 78.3361 12.8885 77.856 12.3921C77.384 11.8875 76.7126 11.6353 75.8418 11.6353C75.1908 11.6353 74.5763 11.8062 73.9985 12.1479C73.4289 12.4816 73.022 12.9373 72.7778 13.5151C72.5337 14.0929 72.4116 14.8905 72.4116 15.9077V23H70.2144ZM92.5898 21.4009C91.776 22.0926 90.9907 22.5809 90.2339 22.8657C89.4852 23.1506 88.6795 23.293 87.8169 23.293C86.3927 23.293 85.2982 22.9471 84.5332 22.2554C83.7682 21.5555 83.3857 20.6644 83.3857 19.582C83.3857 18.9473 83.5282 18.3695 83.813 17.8486C84.106 17.3197 84.4844 16.8965 84.9482 16.5791C85.4202 16.2617 85.9492 16.0216 86.5352 15.8589C86.9665 15.745 87.6175 15.6351 88.4883 15.5293C90.2624 15.3177 91.5685 15.0654 92.4067 14.7725C92.4149 14.4714 92.4189 14.2801 92.4189 14.1987C92.4189 13.3035 92.2114 12.6729 91.7964 12.3066C91.2349 11.8102 90.4007 11.562 89.2939 11.562C88.2604 11.562 87.4954 11.7451 86.999 12.1113C86.5107 12.4694 86.1486 13.1082 85.9126 14.0278L83.7642 13.7349C83.9595 12.8153 84.2809 12.0747 84.7285 11.5132C85.1761 10.9435 85.8231 10.5081 86.6694 10.207C87.5158 9.89779 88.4964 9.74316 89.6113 9.74316C90.7181 9.74316 91.6174 9.87337 92.3091 10.1338C93.0008 10.3942 93.5094 10.7238 93.835 11.1226C94.1605 11.5132 94.3883 12.0096 94.5186 12.6118C94.5918 12.9862 94.6284 13.6616 94.6284 14.6382V17.5679C94.6284 19.6105 94.6732 20.9045 94.7627 21.4497C94.8604 21.9868 95.0475 22.5036 95.3242 23H93.0293C92.8014 22.5443 92.6549 22.0112 92.5898 21.4009ZM92.4067 16.4937C91.6092 16.8192 90.4129 17.0959 88.8179 17.3237C87.9146 17.4539 87.2757 17.6004 86.9014 17.7632C86.527 17.9259 86.2381 18.166 86.0347 18.4834C85.8312 18.7926 85.7295 19.1385 85.7295 19.521C85.7295 20.1069 85.9492 20.5952 86.3887 20.9858C86.8363 21.3765 87.4873 21.5718 88.3418 21.5718C89.1882 21.5718 89.9409 21.3887 90.6001 21.0225C91.2593 20.6481 91.7435 20.1395 92.0527 19.4966C92.2887 19.0002 92.4067 18.2677 92.4067 17.2993V16.4937ZM98.022 23V10.0361H99.9995V12.0015C100.504 11.0819 100.968 10.4756 101.391 10.1826C101.822 9.88965 102.294 9.74316 102.807 9.74316C103.548 9.74316 104.3 9.97917 105.065 10.4512L104.309 12.4897C103.771 12.1724 103.234 12.0137 102.697 12.0137C102.217 12.0137 101.786 12.1602 101.403 12.4531C101.021 12.738 100.748 13.1367 100.585 13.6494C100.341 14.4307 100.219 15.2852 100.219 16.2129V23H98.022ZM106.372 27.9683V10.0361H108.374V11.7207C108.846 11.0615 109.379 10.5692 109.973 10.2437C110.567 9.90999 111.287 9.74316 112.133 9.74316C113.24 9.74316 114.217 10.028 115.063 10.5977C115.909 11.1673 116.548 11.973 116.979 13.0146C117.411 14.0482 117.626 15.1834 117.626 16.4204C117.626 17.7469 117.386 18.9432 116.906 20.0093C116.434 21.0672 115.743 21.881 114.831 22.4507C113.928 23.0122 112.976 23.293 111.975 23.293C111.242 23.293 110.583 23.1383 109.997 22.8291C109.419 22.5199 108.943 22.1292 108.569 21.6572V27.9683H106.372ZM108.361 16.5913C108.361 18.2596 108.699 19.4925 109.375 20.29C110.05 21.0876 110.868 21.4863 111.828 21.4863C112.805 21.4863 113.639 21.0754 114.331 20.2534C115.03 19.4233 115.38 18.1416 115.38 16.4082C115.38 14.7562 115.039 13.5192 114.355 12.6973C113.68 11.8753 112.87 11.4644 111.926 11.4644C110.99 11.4644 110.16 11.9038 109.436 12.7827C108.719 13.6535 108.361 14.923 108.361 16.5913Z" fill="white"/>
<path d="M22.5849 17.0633C21.6464 18.9367 19.8589 20.2025 17.8257 20.2025C14.8093 20.2025 12.3515 17.4177 12.3515 14C12.3515 10.5823 14.8093 7.79747 17.8257 7.79747C19.8589 7.79747 21.6464 9.06329 22.5849 10.962L25.4895 9.06329C23.9702 6.05063 21.1102 4 17.8257 4C12.9548 4 9 8.48101 9 14C9 19.519 12.9548 24 17.8257 24C21.0878 24 23.9478 21.9747 25.4672 18.9873L22.5849 17.0633V17.0633ZM25.199 14.557L25.4001 13.4684H24.4617V12.2785H25.6012L25.8694 10.7089H26.9642L26.6961 12.2532H27.5451L27.8132 10.7089H28.8857L28.6176 12.2532H29.1538V13.443H28.4165L28.2154 14.5316H29.1538V15.7215H28.0143L27.7462 17.2405H26.6514L26.9195 15.7215H26.0704L25.8023 17.2405H24.7298L24.998 15.7215H24.4617V14.5316H25.199V14.557ZM26.2715 14.557H27.1206L27.3217 13.4684H26.4726L26.2715 14.557Z" fill="white"/>
</svg>
