<svg width="127" height="28" viewBox="0 0 127 28" fill="none" xmlns="http://www.w3.org/2000/svg">
<rect width="127" height="28" fill="#A91D22"/>
<path d="M49.123 17.2505L51.3569 17.0552C51.4627 17.9504 51.7069 18.6868 52.0894 19.2646C52.48 19.8343 53.0822 20.2982 53.896 20.6562C54.7098 21.0062 55.6253 21.1812 56.6426 21.1812C57.5459 21.1812 58.3434 21.0469 59.0352 20.7783C59.7269 20.5098 60.2396 20.1436 60.5732 19.6797C60.915 19.2077 61.0859 18.695 61.0859 18.1416C61.0859 17.5801 60.9232 17.0918 60.5977 16.6768C60.2721 16.2536 59.735 15.8996 58.9863 15.6147C58.5062 15.4276 57.4442 15.1387 55.8003 14.748C54.1564 14.3493 53.0049 13.9749 52.3457 13.625C51.4912 13.1774 50.8524 12.624 50.4292 11.9648C50.0142 11.2975 49.8066 10.5529 49.8066 9.73096C49.8066 8.82764 50.063 7.98535 50.5757 7.2041C51.0884 6.41471 51.8371 5.81657 52.8218 5.40967C53.8065 5.00277 54.901 4.79932 56.1055 4.79932C57.432 4.79932 58.5998 5.01497 59.6089 5.44629C60.6261 5.86947 61.4074 6.49609 61.9526 7.32617C62.4979 8.15625 62.7909 9.09619 62.8315 10.146L60.561 10.3169C60.439 9.18571 60.0239 8.33122 59.3159 7.75342C58.616 7.17562 57.5785 6.88672 56.2031 6.88672C54.7708 6.88672 53.7251 7.1512 53.0659 7.68018C52.4149 8.20101 52.0894 8.83171 52.0894 9.57227C52.0894 10.2152 52.3213 10.7441 52.7852 11.1592C53.2409 11.5742 54.429 12.0015 56.3496 12.4409C58.2783 12.8722 59.6007 13.2507 60.3169 13.5762C61.3586 14.0563 62.1276 14.6667 62.624 15.4072C63.1204 16.1396 63.3687 16.986 63.3687 17.9463C63.3687 18.8984 63.096 19.7977 62.5508 20.644C62.0055 21.4823 61.2202 22.1374 60.1948 22.6094C59.1776 23.0732 58.0301 23.3052 56.7524 23.3052C55.133 23.3052 53.7739 23.0692 52.6753 22.5972C51.5848 22.1252 50.7262 21.4172 50.0996 20.4731C49.4811 19.521 49.1556 18.4468 49.123 17.2505ZM87.1235 21.0835C88.2222 21.8403 89.2354 22.3937 90.1631 22.7437L89.4673 24.3916C88.1815 23.9277 86.8997 23.1953 85.6221 22.1943C84.2956 22.9349 82.8307 23.3052 81.2275 23.3052C79.6081 23.3052 78.1392 22.9146 76.8208 22.1333C75.5024 21.3521 74.4852 20.2534 73.769 18.8374C73.061 17.4214 72.707 15.8263 72.707 14.0522C72.707 12.2863 73.0651 10.679 73.7812 9.23047C74.4974 7.7819 75.5146 6.6792 76.833 5.92236C78.1595 5.16553 79.6406 4.78711 81.2764 4.78711C82.9284 4.78711 84.4176 5.1818 85.7441 5.97119C87.0706 6.75244 88.0798 7.85107 88.7715 9.26709C89.4714 10.675 89.8213 12.266 89.8213 14.04C89.8213 15.513 89.5975 16.8395 89.1499 18.0195C88.7023 19.1914 88.0269 20.2127 87.1235 21.0835ZM81.9111 18.0562C83.2783 18.4386 84.4054 19.0083 85.2925 19.7651C86.6841 18.4956 87.3799 16.5872 87.3799 14.04C87.3799 12.5915 87.1317 11.326 86.6353 10.2437C86.147 9.1613 85.4268 8.32308 84.4746 7.729C83.5306 7.12679 82.4686 6.82568 81.2886 6.82568C79.5226 6.82568 78.0578 7.43197 76.894 8.64453C75.7303 9.84896 75.1484 11.6515 75.1484 14.0522C75.1484 16.3797 75.7222 18.166 76.8696 19.4111C78.0252 20.6562 79.4982 21.2788 81.2886 21.2788C82.1349 21.2788 82.9325 21.1201 83.6812 20.8027C82.9406 20.3226 82.1593 19.9808 81.3374 19.7773L81.9111 18.0562ZM99.8799 23V5.10449H102.248V20.8882H111.062V23H99.8799Z" fill="white"/>
<path d="M26.2673 12.7373L21.6612 14.2413L17.654 16.0099L16.533 16.3059C16.2475 16.5775 15.9481 16.8525 15.6243 17.131C15.2692 17.4374 14.9385 17.7159 14.6843 17.9178C14.4023 18.1407 13.9845 18.5584 13.7721 18.823C13.4553 19.2199 13.2047 19.6411 13.0967 19.9649C12.9052 20.5499 12.9993 21.1417 13.3683 21.6883C13.8418 22.3846 14.7853 23.0948 15.8854 23.5787C16.446 23.826 17.3894 24.1427 18.0996 24.3203C19.2798 24.6197 21.5637 24.9435 22.8205 24.9923C23.0746 25.0027 23.4159 25.0027 23.4297 24.9923C23.4576 24.9748 23.6526 24.6023 23.8789 24.1393C24.6518 22.5622 25.2089 21.0825 25.5117 19.8187C25.6928 19.0529 25.8355 18.0327 25.9294 16.8247C25.9539 16.487 25.9643 15.3555 25.9434 14.9725C25.912 14.3459 25.8563 13.8376 25.7693 13.3397C25.7554 13.2666 25.7519 13.2004 25.7589 13.197C25.7728 13.1865 25.8145 13.1726 26.382 13.0089L26.2672 12.7374V12.7373H26.2673V12.7373ZM25.2159 13.3536C25.2576 13.3536 25.369 14.4224 25.3968 15.0978C25.4038 15.2406 25.4003 15.3346 25.3934 15.3346C25.3655 15.3346 24.805 15.0038 24.4047 14.7532C24.0565 14.5338 23.395 14.0951 23.2906 14.0116C23.2557 13.9872 23.2592 13.9838 23.5447 13.8863C24.0286 13.7226 25.1776 13.3536 25.2159 13.3536V13.3536ZM22.8693 14.1265C22.9007 14.1265 22.9807 14.1717 23.1722 14.2901C23.8894 14.7392 24.8642 15.2823 25.282 15.4634C25.4108 15.5191 25.4247 15.4982 25.1288 15.7001C24.4952 16.1318 23.7048 16.5566 22.7369 16.9848C22.5664 17.0614 22.4237 17.1205 22.4202 17.1205C22.4133 17.1205 22.4341 17.0336 22.4619 16.9291C22.6952 16.0621 22.8275 15.1848 22.8345 14.4816C22.838 14.1334 22.838 14.1334 22.8693 14.123C22.8623 14.1265 22.8658 14.1265 22.8693 14.1265V14.1265ZM22.3854 14.311C22.4062 14.3318 22.3923 15.1117 22.3645 15.3241C22.3018 15.8324 22.2043 16.3059 22.0442 16.8386C22.0059 16.9673 21.971 17.0753 21.9642 17.0822C21.9502 17.0996 21.4732 16.6331 21.3165 16.4521C21.045 16.1387 20.8326 15.8254 20.676 15.519C20.5959 15.3624 20.4706 15.056 20.481 15.0456C20.5367 15.0073 22.3715 14.2971 22.3854 14.311ZM20.1085 15.2057C20.1119 15.2057 20.1154 15.2057 20.1189 15.2092C20.1259 15.2162 20.1503 15.2719 20.1712 15.3345C20.2825 15.6374 20.5332 16.083 20.7491 16.3685C20.9858 16.6819 21.2957 17.0161 21.5533 17.2354C21.6369 17.305 21.7134 17.3712 21.7238 17.3816C21.7448 17.4025 21.7517 17.399 21.1842 17.6149C20.5263 17.8656 19.809 18.1162 18.9874 18.3808C18.7911 18.4441 18.595 18.5079 18.3991 18.5723C18.3677 18.5828 18.3782 18.5653 18.4687 18.4226C18.876 17.7855 19.4957 16.5357 19.8439 15.6513C19.9031 15.4981 19.9622 15.345 19.9727 15.3102C19.9866 15.2614 20.004 15.244 20.0493 15.2196C20.0736 15.2127 20.098 15.2057 20.1085 15.2057V15.2057ZM19.4122 15.4947C19.4226 15.5017 19.2451 15.8742 19.071 16.2153C18.7333 16.8733 18.3642 17.5209 17.8699 18.3077C17.7863 18.4435 17.7063 18.5689 17.6958 18.5828C17.6784 18.6072 17.6714 18.6002 17.6157 18.4923C17.4974 18.259 17.3999 17.9596 17.3476 17.6845C17.2954 17.413 17.3059 16.9395 17.3651 16.6471C17.4103 16.4312 17.4069 16.4347 17.5113 16.3825C17.9569 16.1562 19.3983 15.4808 19.4122 15.4947V15.4947ZM25.4178 15.7384V15.8846C25.4178 16.661 25.3342 17.7263 25.2123 18.5027C25.1914 18.6385 25.174 18.7499 25.1705 18.7534C25.1705 18.7534 25.0696 18.7256 24.9512 18.6907C24.429 18.5271 23.8615 18.2868 23.3497 18.0049C23.012 17.8204 22.5211 17.5174 22.5351 17.5035C22.5385 17.5 22.6848 17.4235 22.8553 17.3329C23.5378 16.9778 24.1922 16.5949 24.7597 16.2154C24.9721 16.0726 25.2924 15.8429 25.3621 15.7802L25.4178 15.7384ZM16.7836 16.7689C16.7976 16.7689 16.7941 16.7967 16.7732 16.9221C16.7592 17.0126 16.7419 17.1797 16.7349 17.2946C16.707 17.8029 16.7906 18.1789 17.0413 18.6941C17.1109 18.8369 17.1667 18.9553 17.1631 18.9587C17.1387 18.9796 14.834 19.6551 14.1098 19.8535C13.894 19.9127 13.706 19.9649 13.692 19.9683C13.6677 19.9753 13.6642 19.9719 13.6747 19.9126C13.7547 19.4009 14.1447 18.7324 14.6878 18.1684C15.0498 17.7924 15.3388 17.5731 15.8332 17.2911C16.1883 17.0892 16.7349 16.7863 16.7767 16.7724C16.7767 16.7689 16.7802 16.7689 16.7836 16.7689V16.7689ZM22.2148 17.7402C22.2183 17.7368 22.3018 17.782 22.4028 17.8412C23.1478 18.2729 24.1853 18.6733 25.0695 18.8787L25.1497 18.8961L25.0382 18.9587C24.5752 19.2164 23.0538 19.85 21.4976 20.4314C21.2713 20.515 21.0485 20.5985 21.0066 20.6159C20.9649 20.6333 20.9266 20.6438 20.9266 20.6403C20.9266 20.6368 20.9893 20.5149 21.0693 20.3653C21.5045 19.5506 21.9432 18.5584 22.166 17.869C22.1939 17.8029 22.2113 17.7437 22.2148 17.7402V17.7402ZM21.6612 17.9213C21.6648 17.9248 21.6369 17.9979 21.602 18.0814C21.2992 18.816 20.9022 19.6168 20.394 20.515C20.2652 20.7448 20.1572 20.9293 20.1537 20.9293C20.1503 20.9293 20.0458 20.8666 19.9205 20.7901C19.1823 20.3375 18.5278 19.7804 18.0997 19.2408L18.037 19.1642L18.3537 19.0771C19.4887 18.7673 20.4531 18.4331 21.4105 18.0223C21.5463 17.9666 21.6578 17.9213 21.6612 17.9213V17.9213ZM25.1009 19.1224C25.1009 19.1224 25.1044 19.1259 25.1009 19.1224C25.1044 19.2025 24.9269 19.9197 24.7806 20.4384C24.6588 20.8736 24.5543 21.2148 24.3628 21.817C24.2793 22.0817 24.2062 22.301 24.2027 22.301C24.1992 22.301 24.1783 22.2975 24.1575 22.2906C23.1235 22.1025 22.1974 21.8414 21.327 21.4933C21.0833 21.3958 20.7351 21.2391 20.7143 21.2217C20.7073 21.2147 20.9162 21.1173 21.1808 21.0024C22.7649 20.3095 24.4081 19.5227 24.9721 19.1851C25.0382 19.1433 25.0905 19.1224 25.1009 19.1224V19.1224ZM17.1597 19.394C17.1666 19.4009 16.7245 20.0381 16.1047 20.9049C15.8889 21.2078 15.6382 21.5629 15.5443 21.6952C15.4502 21.8275 15.3075 22.0364 15.2274 22.1618L15.0812 22.3881L14.9245 22.2558C14.7399 22.1025 14.4197 21.7753 14.277 21.5943C13.9775 21.2218 13.7756 20.8284 13.6956 20.4698C13.6572 20.3027 13.6572 20.2191 13.692 20.2087C13.7442 20.1948 14.6738 19.9754 15.5442 19.7734C16.0282 19.6621 16.5886 19.5298 16.7906 19.481C16.9925 19.4322 17.1562 19.394 17.1597 19.394V19.394ZM17.6053 19.5646L17.7166 19.6899C18.218 20.2504 18.7298 20.6648 19.3495 21.0268C19.4609 21.0895 19.5445 21.1452 19.5375 21.1487C19.5132 21.1661 17.3859 21.9215 16.4007 22.2627C15.8471 22.4577 15.391 22.6143 15.3876 22.6143C15.3841 22.6143 15.3528 22.5935 15.3179 22.5691L15.2553 22.5238L15.3562 22.3776C15.6835 21.9041 16.0944 21.3854 16.9891 20.3061L17.6053 19.5646ZM20.3835 21.5525C20.387 21.549 20.5402 21.6047 20.7281 21.6744C21.1808 21.845 21.5393 21.9529 22.0198 22.0747C22.6117 22.2244 23.4681 22.3707 23.973 22.4124C24.0496 22.4194 24.0913 22.4264 24.0774 22.4368C24.053 22.4508 23.5413 22.6213 23.1652 22.7397C22.5664 22.9277 20.7386 23.4673 19.2486 23.8956C18.9735 23.9756 18.7368 24.0418 18.7228 24.0452C18.6881 24.0522 18.5731 24.0208 18.5731 24.0069C18.5731 24 18.6567 23.8921 18.7577 23.7737C19.259 23.1749 19.7569 22.5064 20.1712 21.8728C20.286 21.6987 20.3835 21.556 20.3835 21.5525ZM19.7707 21.5699C19.7742 21.5734 19.5271 21.9703 19.0954 22.6526C18.9108 22.9416 18.7054 23.2688 18.6323 23.3837C18.5627 23.4951 18.4582 23.6693 18.3991 23.7667L18.2981 23.9443L18.2459 23.9303C18.1205 23.8955 17.2397 23.5856 17.0064 23.4917C16.7175 23.3768 16.4181 23.2375 16.1952 23.1192C15.9167 22.9694 15.5686 22.7466 15.5964 22.7397C15.6034 22.7362 16.0804 22.6073 16.6548 22.4507C18.1797 22.0364 19.0257 21.7962 19.5793 21.6221C19.6803 21.5908 19.7673 21.5664 19.7707 21.5699ZM24.1052 22.5865H24.1087C24.1226 22.6213 23.5587 24.188 23.3532 24.6823C23.308 24.7937 23.2906 24.8216 23.2662 24.8181C23.207 24.8147 22.3889 24.6998 21.891 24.6266C21.0241 24.4943 19.5688 24.2402 19.2033 24.1566L19.1198 24.1392L19.6384 24.0208C20.7525 23.7701 21.2887 23.6344 21.8318 23.4673C22.5177 23.2584 23.1966 22.9973 23.8824 22.677C23.9903 22.6282 24.0808 22.5899 24.1052 22.5865Z" fill="white"/>
<path d="M21.5185 2.00018C21.4419 1.98979 20.2059 2.43542 19.4087 2.75915C18.3329 3.19788 17.4974 3.61568 16.9821 3.97767C16.7906 4.11351 16.5504 4.3537 16.5121 4.44769C16.4982 4.48251 16.4912 4.52428 16.4912 4.56605L16.9578 5.00821L18.0683 5.36332L20.7108 5.83682L23.7327 6.35557L23.7641 6.09446C23.7536 6.09446 23.7466 6.09099 23.7363 6.09099L23.3393 6.0283L23.2593 5.88557C22.8484 5.1614 22.3958 4.26317 22.1313 3.65739C21.9259 3.18738 21.7309 2.64432 21.6229 2.25437C21.5638 2.01763 21.5568 2.00371 21.5186 2.00024V2.00016H21.5185V2.00018ZM21.4627 2.17779H21.4663C21.4697 2.18122 21.4837 2.27877 21.4976 2.39359C21.5567 2.88107 21.6648 3.351 21.8353 3.85932C21.9641 4.2423 21.9641 4.22143 21.8144 4.17614C21.4593 4.07869 19.8683 3.80364 18.7159 3.6435C18.5314 3.61911 18.3747 3.59476 18.3747 3.59129C18.3608 3.57737 19.2068 3.13518 19.5793 2.96115C20.0563 2.74177 21.3653 2.19518 21.4627 2.17779V2.17779ZM18.1066 3.73748L18.2424 3.78269C18.9804 4.0334 20.836 4.38852 21.8597 4.47207C21.9745 4.48252 22.072 4.49299 22.0755 4.49299C22.0789 4.49646 21.9815 4.54868 21.8561 4.60784C21.3618 4.85504 20.8187 5.15794 20.4427 5.39121C20.3313 5.4608 20.2303 5.51654 20.2164 5.51654C20.2025 5.51654 20.1294 5.50261 20.0528 5.49216L19.9135 5.47124L19.5654 5.13003C18.9527 4.53473 18.4722 4.07519 18.2877 3.90108L18.1066 3.73748V3.73748ZM17.9674 3.84538L18.4583 4.45815C18.7263 4.79586 18.9979 5.12658 19.0571 5.19966C19.1162 5.27282 19.165 5.33203 19.1615 5.3355C19.1476 5.34593 18.4514 5.21013 18.0823 5.12661C17.7028 5.03955 17.5461 4.99778 17.3129 4.9247L17.1214 4.862V4.81323C17.1248 4.57996 17.4208 4.23183 17.9221 3.87676L17.9674 3.84538ZM22.1382 4.68096C22.1521 4.68096 22.1695 4.71228 22.2113 4.80628C22.3296 5.06737 22.6987 5.77067 22.7892 5.90643C22.8171 5.95173 22.8658 5.9552 22.3749 5.87512C21.1947 5.68359 20.8152 5.621 20.8152 5.61403C20.8152 5.61056 20.85 5.58617 20.8953 5.56179C21.2609 5.3599 21.6299 5.10224 21.9572 4.8272C22.0372 4.76104 22.1104 4.69838 22.1242 4.68791C22.1277 4.68096 22.1347 4.67749 22.1382 4.68096Z" fill="white"/>
<path d="M16.5364 4.39893C16.5364 4.39893 16.4599 4.52083 16.533 4.70187C16.5783 4.81324 16.7105 4.949 16.8602 5.08829C16.8602 5.08829 18.4095 6.59924 18.5975 6.81513C19.4539 7.80384 19.8264 8.77867 19.8613 10.1225C19.8822 10.986 19.7185 11.7449 19.3112 12.6257C18.587 14.2064 17.0586 15.9506 14.7017 17.8863L15.0464 17.7714C15.2692 17.6043 15.5721 17.4268 16.2823 17.0368C17.922 16.1385 19.7673 15.3134 22.0302 14.464C25.2888 13.2384 30.6469 11.804 33.6967 11.3376L34.0135 11.2888L33.9647 11.2122C33.6863 10.7805 33.4947 10.5124 33.2649 10.227C32.5965 9.39836 31.7854 8.72646 30.7931 8.1694C29.4284 7.40699 27.6632 6.81166 25.4281 6.3695C25.0069 6.28591 24.0808 6.12578 23.3288 6.01089C21.7343 5.76377 20.7037 5.59314 19.5688 5.39817C19.1615 5.32851 18.5522 5.22409 18.1483 5.13708C17.9394 5.09177 17.5391 4.99779 17.2258 4.88987C16.9751 4.79234 16.613 4.69486 16.5364 4.39893V4.39893ZM17.4347 5.26934C17.4381 5.2659 17.4938 5.28672 17.567 5.31111C17.6993 5.35632 17.8699 5.40856 18.0718 5.4643C18.2246 5.50633 18.3778 5.54695 18.5314 5.58614C18.7403 5.63833 18.9143 5.68709 18.9178 5.68709C18.9422 5.71148 19.2938 6.83592 19.4122 7.26764C19.4574 7.43131 19.4923 7.57054 19.4888 7.57054C19.4852 7.57407 19.447 7.51485 19.4017 7.43478C18.9944 6.71758 18.3503 5.98996 17.6053 5.40504C17.5078 5.33548 17.4347 5.2728 17.4347 5.26934ZM19.1476 5.74282C19.165 5.74282 19.2416 5.75327 19.3355 5.77414C19.9274 5.90643 20.9893 6.10836 21.6682 6.22326C21.7831 6.24065 21.8736 6.26158 21.8736 6.2685C21.8736 6.2755 21.8318 6.29983 21.7795 6.32771C21.6647 6.38687 21.2016 6.66189 21.0485 6.76635C20.662 7.02398 20.3139 7.30249 20.0632 7.55315C19.9623 7.65413 19.8752 7.73768 19.8752 7.73768C19.8752 7.73768 19.8543 7.67852 19.8369 7.60536C19.7116 7.12143 19.4504 6.40423 19.2137 5.89944C19.1754 5.81939 19.144 5.74627 19.144 5.73933C19.144 5.74628 19.144 5.74282 19.1476 5.74282V5.74282ZM22.1625 6.31726C22.1834 6.3242 22.2182 6.44258 22.2879 6.70368C22.4167 7.20853 22.4759 7.77252 22.455 8.29822C22.448 8.44445 22.4411 8.5802 22.4341 8.59766L22.4236 8.63243L22.2426 8.57327C21.8701 8.4549 21.2643 8.2773 20.7456 8.13111C20.4496 8.05103 20.2095 7.97792 20.2095 7.97097C20.2095 7.95005 20.6412 7.51836 20.8257 7.35475C21.1773 7.04485 22.1312 6.30679 22.1625 6.31726V6.31726ZM22.4028 6.35203C22.4132 6.34165 23.8441 6.58877 24.4952 6.71413C24.9791 6.80811 25.6824 6.95435 25.7241 6.97179C25.745 6.97872 25.6719 7.0205 25.4386 7.12493C24.5195 7.53926 23.8371 7.91173 23.1583 8.36437C22.9807 8.48274 22.831 8.58021 22.8275 8.58021C22.8241 8.58021 22.8206 8.47927 22.8206 8.3574C22.8206 7.69594 22.6883 7.02748 22.4445 6.46348C22.4202 6.40778 22.3993 6.35557 22.4028 6.35203V6.35203ZM26.1036 7.08319C26.114 7.09362 26.0688 7.37565 26.027 7.54273C25.9017 8.06148 25.564 8.83094 25.1497 9.55505C25.0765 9.68387 25.0104 9.78832 25.0034 9.79179C24.9965 9.79526 24.9025 9.74302 24.7945 9.68036C24.3907 9.44362 23.9312 9.22081 23.4298 9.01189C23.2906 8.95273 23.1687 8.90396 23.1652 8.89706C23.1408 8.87614 24.2619 8.13458 24.8537 7.77947C25.3237 7.49401 26.0896 7.06924 26.1036 7.08319V7.08319ZM26.3682 7.12495C26.3995 7.12495 27.0331 7.29904 27.3638 7.39652C28.182 7.64025 29.122 7.98489 29.7347 8.2634L29.9889 8.37834L29.8114 8.42008C28.3144 8.76472 27.0331 9.16167 25.7972 9.66298C25.6962 9.70476 25.6057 9.73958 25.5988 9.73958C25.5918 9.73958 25.6266 9.65952 25.6719 9.562C26.0444 8.77172 26.2846 7.9466 26.3438 7.2433C26.3473 7.17714 26.3577 7.12495 26.3682 7.12495V7.12495ZM20.0597 8.57327C20.0702 8.5628 20.5541 8.67772 20.8152 8.75077C21.2121 8.86222 22.0546 9.14418 22.0546 9.1651C22.0546 9.16857 21.9606 9.24865 21.8492 9.34617C21.3932 9.72565 20.9545 10.126 20.4287 10.6343C20.2721 10.784 20.1398 10.9059 20.1329 10.9059C20.1259 10.9059 20.1224 10.8849 20.1259 10.8571C20.2059 10.2722 20.1886 9.52021 20.0772 8.75777C20.0667 8.66025 20.0562 8.57674 20.0597 8.57327V8.57327ZM30.2292 8.58374C30.2361 8.59066 30.0063 8.95273 29.8601 9.15812C29.6513 9.45752 29.3448 9.85448 28.652 10.7248C28.2865 11.1844 27.8756 11.7031 27.7399 11.8772C27.6006 12.0513 27.4857 12.1975 27.4822 12.1975C27.4787 12.1975 27.4335 12.1348 27.3848 12.0583C26.9948 11.4733 26.5283 10.9616 25.9747 10.502C25.8703 10.4149 25.7554 10.3209 25.7171 10.2931C25.6788 10.2653 25.6475 10.2374 25.6475 10.2339C25.6475 10.2235 26.2393 9.9693 26.6885 9.78831C27.4753 9.46799 28.5475 9.08504 29.3518 8.83783C29.773 8.70556 30.2222 8.57674 30.2292 8.58374V8.58374ZM30.4972 8.65332C30.5111 8.64987 30.5947 8.69164 30.6957 8.75077C31.5417 9.2347 32.3702 9.85792 33.0248 10.4985C33.2093 10.6796 33.6654 11.1531 33.6584 11.1565C33.6584 11.1565 33.4982 11.1705 33.3103 11.1844C31.8446 11.2958 29.9681 11.6056 28.1646 12.0408C28.0428 12.0686 27.9349 12.093 27.9279 12.093C27.921 12.093 28.0567 11.9572 28.2274 11.7936C29.2857 10.7736 29.7697 10.1295 30.3406 8.98056C30.4206 8.81001 30.4903 8.66379 30.4972 8.65332C30.4938 8.65332 30.4938 8.65332 30.4972 8.65332V8.65332ZM22.7439 9.44715C22.7927 9.45754 23.2453 9.66998 23.5865 9.84053C23.8998 9.99714 24.3698 10.2479 24.3942 10.2687C24.3977 10.2722 24.2305 10.3592 24.0252 10.4602C23.3706 10.7875 22.8101 11.0973 22.2252 11.4524C22.0581 11.5534 21.9188 11.637 21.9154 11.637C21.9014 11.637 21.9049 11.623 21.9989 11.4524C22.3123 10.8815 22.5629 10.1991 22.7057 9.53413C22.7196 9.48192 22.7335 9.44715 22.7439 9.44715V9.44715ZM22.2913 9.53066C22.3018 9.54113 22.1834 9.96932 22.1103 10.2026C21.9676 10.6447 21.7273 11.1983 21.4941 11.6161C21.4383 11.7135 21.3548 11.8563 21.3096 11.9363L21.2225 12.0756L21.0276 11.8876C20.8013 11.6683 20.6167 11.5325 20.3801 11.4106C20.286 11.3619 20.2129 11.3201 20.2129 11.3132C20.2129 11.2853 20.8082 10.7457 21.2643 10.3558C21.5916 10.0738 22.2809 9.52023 22.2913 9.53066V9.53066ZM25.0592 10.6691L25.2298 10.7805C25.6196 11.0347 26.0792 11.3724 26.4309 11.6683C26.6293 11.8319 27.0122 12.1766 27.0889 12.2602L27.1306 12.3055L26.8486 12.3855C25.2541 12.8276 24.0217 13.221 22.5838 13.7502C22.4236 13.8094 22.2879 13.8582 22.2774 13.8582C22.2566 13.8582 22.2391 13.8755 22.5977 13.5448C23.5169 12.6989 24.3315 11.7658 24.9373 10.8571L25.0592 10.6691V10.6691ZM24.3315 10.8502C24.3385 10.8571 23.8615 11.529 23.576 11.9085C23.2348 12.3611 22.629 13.1201 22.2113 13.6144C22.0372 13.8198 21.8876 13.9904 21.8806 13.9939C21.8701 13.9974 21.8666 13.9452 21.8666 13.8651C21.8666 13.4438 21.7587 12.9947 21.5707 12.6118C21.4906 12.4516 21.4767 12.4133 21.4941 12.3959C21.5603 12.3367 22.5734 11.7588 23.2139 11.4141C23.6456 11.1844 24.321 10.8432 24.3315 10.8502V10.8502ZM19.9309 11.9294C19.9413 11.9294 20.0214 11.9712 20.112 12.0199C20.3348 12.1418 20.5332 12.2776 20.7108 12.4238C20.7177 12.4307 20.6272 12.5039 20.5088 12.5909C20.1781 12.8276 19.6768 13.2071 19.3844 13.4404C19.0779 13.6841 19.0675 13.6911 19.1023 13.6388C19.3321 13.2872 19.447 13.0888 19.5689 12.8346C19.6768 12.6084 19.7847 12.3403 19.8613 12.107C19.8891 12.006 19.9239 11.9294 19.9309 11.9294ZM21.1042 12.8485C21.1215 12.8451 21.1425 12.8764 21.2364 13.0157C21.4349 13.3115 21.5881 13.7085 21.6264 14.0288L21.6333 14.0984L21.1564 14.283C20.3034 14.6137 19.5166 14.9409 18.9839 15.1846C18.8342 15.2543 18.5731 15.3796 18.4026 15.4632C18.2319 15.5502 18.0927 15.6163 18.0927 15.6129C18.0927 15.6094 18.2006 15.5293 18.3329 15.4318C19.3739 14.6764 20.2756 13.8477 20.951 13.0191C21.0241 12.9321 21.0903 12.852 21.0972 12.8485L21.1042 12.8485V12.8485ZM20.5646 12.9808C20.5785 12.9948 20.1816 13.4438 19.9101 13.7189C19.2381 14.4048 18.5732 14.9409 17.748 15.4632C17.6436 15.5293 17.5496 15.5885 17.5391 15.5955C17.5147 15.6094 17.5461 15.5746 17.9082 15.1811C18.138 14.9339 18.312 14.7251 18.5105 14.4675C18.6427 14.2969 18.6671 14.2725 18.8586 14.1367C19.3704 13.7676 20.5506 12.9669 20.5646 12.9808Z" fill="white"/>
</svg>
