<svg width="66" height="28" viewBox="0 0 66 28" fill="none" xmlns="http://www.w3.org/2000/svg">
<path d="M63 0H0V28H63V0Z" fill="#A91D22"/>
<path d="M35.752 15.7148C35.752 16.431 35.4476 17.0137 34.8389 17.4629C34.2334 17.9089 33.4098 18.1318 32.3682 18.1318C31.766 18.1318 31.2402 18.0798 30.791 17.9756C30.3451 17.8682 29.9268 17.7331 29.5361 17.5703V15.8271H29.7412C30.1286 16.1364 30.5615 16.374 31.04 16.54C31.5218 16.7061 31.984 16.7891 32.4268 16.7891C32.5407 16.7891 32.6904 16.7793 32.876 16.7598C33.0615 16.7402 33.2129 16.7077 33.3301 16.6621C33.4733 16.6035 33.5905 16.5303 33.6816 16.4424C33.776 16.3545 33.8232 16.2243 33.8232 16.0518C33.8232 15.8923 33.7549 15.7555 33.6182 15.6416C33.4847 15.5244 33.2878 15.4349 33.0273 15.373C32.7539 15.3079 32.4642 15.2477 32.1582 15.1924C31.8555 15.1338 31.5706 15.0605 31.3037 14.9727C30.6917 14.7741 30.2507 14.5055 29.9805 14.167C29.7135 13.8252 29.5801 13.402 29.5801 12.8975C29.5801 12.2204 29.8828 11.6686 30.4883 11.2422C31.097 10.8125 31.8783 10.5977 32.832 10.5977C33.3105 10.5977 33.7826 10.6449 34.248 10.7393C34.7168 10.8304 35.1221 10.946 35.4639 11.0859V12.7607H35.2637C34.9707 12.5264 34.611 12.3311 34.1846 12.1748C33.7614 12.0153 33.3285 11.9355 32.8857 11.9355C32.7295 11.9355 32.5732 11.9469 32.417 11.9697C32.264 11.9893 32.1159 12.0283 31.9727 12.0869C31.8457 12.1357 31.7367 12.2106 31.6455 12.3115C31.5544 12.4092 31.5088 12.5215 31.5088 12.6484C31.5088 12.8405 31.582 12.9886 31.7285 13.0928C31.875 13.1937 32.1517 13.2865 32.5586 13.3711C32.8255 13.4264 33.0811 13.4801 33.3252 13.5322C33.5726 13.5843 33.8379 13.6559 34.1211 13.7471C34.6777 13.9294 35.0879 14.1784 35.3516 14.4941C35.6185 14.8066 35.752 15.2135 35.752 15.7148ZM41.626 16.208C41.8083 15.9867 41.9434 15.7262 42.0312 15.4268C42.1191 15.124 42.1631 14.7692 42.1631 14.3623C42.1631 13.9261 42.1126 13.555 42.0117 13.249C41.9108 12.943 41.779 12.6956 41.6162 12.5068C41.4502 12.3115 41.2581 12.1699 41.04 12.082C40.8252 11.9941 40.6006 11.9502 40.3662 11.9502C40.1286 11.9502 39.904 11.9925 39.6924 12.0771C39.484 12.1618 39.292 12.3018 39.1162 12.4971C38.9535 12.6794 38.82 12.9316 38.7158 13.2539C38.6149 13.5729 38.5645 13.944 38.5645 14.3672C38.5645 14.8001 38.6133 15.1696 38.7109 15.4756C38.8118 15.7783 38.9437 16.0257 39.1064 16.2178C39.2692 16.4098 39.4596 16.5514 39.6777 16.6426C39.8958 16.7337 40.1253 16.7793 40.3662 16.7793C40.6071 16.7793 40.8366 16.7337 41.0547 16.6426C41.2728 16.5482 41.4632 16.4033 41.626 16.208ZM41.8262 17.9121C41.8392 18.2344 41.9271 18.4655 42.0898 18.6055C42.2526 18.7454 42.5309 18.8154 42.9248 18.8154C43.0583 18.8154 43.2161 18.7926 43.3984 18.7471C43.5807 18.7015 43.7077 18.6608 43.7793 18.625H43.9648V19.9141C43.7826 19.9564 43.584 19.9938 43.3691 20.0264C43.1576 20.0589 42.832 20.0752 42.3926 20.0752C42.0052 20.0752 41.6667 20.0264 41.377 19.9287C41.0905 19.8343 40.8512 19.6992 40.6592 19.5234C40.4704 19.3509 40.3288 19.1475 40.2344 18.9131C40.14 18.6787 40.0846 18.4183 40.0684 18.1318C38.9811 18.07 38.1331 17.707 37.5244 17.043C36.9189 16.3757 36.6162 15.4837 36.6162 14.3672C36.6162 13.1986 36.9482 12.2757 37.6123 11.5986C38.2764 10.9183 39.1927 10.5781 40.3613 10.5781C41.5267 10.5781 42.443 10.9183 43.1104 11.5986C43.7777 12.2757 44.1113 13.1986 44.1113 14.3672C44.1113 15.2298 43.916 15.9753 43.5254 16.6035C43.1348 17.2285 42.5684 17.6647 41.8262 17.9121ZM50.791 18H45.5469V10.7295H47.4219V16.5938H50.791V18Z" fill="white"/>
<rect x="5" y="6" width="15" height="15" rx="1" fill="white"/>
<path d="M14.0556 12.8403L11.4599 13.6879L9.20163 14.6846L8.56985 14.8514C8.40895 15.0044 8.24025 15.1594 8.05778 15.3164C7.85766 15.489 7.67127 15.646 7.52802 15.7598C7.36911 15.8854 7.13367 16.1208 7.014 16.2699C6.83545 16.4936 6.69419 16.731 6.63336 16.9134C6.52545 17.2431 6.57845 17.5766 6.78641 17.8846C7.05324 18.277 7.58495 18.6773 8.20492 18.95C8.52082 19.0893 9.05251 19.2678 9.45274 19.3679C10.1178 19.5366 11.4049 19.7191 12.1132 19.7466C12.2564 19.7525 12.4487 19.7525 12.4565 19.7466C12.4722 19.7367 12.5821 19.5268 12.7096 19.2659C13.1452 18.3771 13.4591 17.5432 13.6298 16.8311C13.7318 16.3994 13.8122 15.8246 13.8652 15.1438C13.879 14.9535 13.8848 14.3158 13.8731 14.1C13.8554 13.7468 13.824 13.4604 13.775 13.1798C13.7671 13.1386 13.7651 13.1013 13.7691 13.0994C13.7769 13.0935 13.8004 13.0856 14.1203 12.9934L14.0555 12.8404V12.8404H14.0556V12.8403ZM13.4631 13.1876C13.4866 13.1876 13.5494 13.7899 13.5651 14.1706C13.569 14.251 13.567 14.304 13.5631 14.304C13.5474 14.304 13.2315 14.1176 13.0059 13.9764C12.8097 13.8528 12.437 13.6055 12.3781 13.5585C12.3584 13.5447 12.3604 13.5428 12.5213 13.4878C12.794 13.3956 13.4415 13.1876 13.4631 13.1876V13.1876ZM12.1407 13.6232C12.1583 13.6232 12.2034 13.6487 12.3114 13.7154C12.7155 13.9685 13.2649 14.2746 13.5003 14.3766C13.5729 14.408 13.5807 14.3962 13.414 14.51C13.0569 14.7533 12.6115 14.9927 12.0661 15.234C11.97 15.2772 11.8895 15.3105 11.8876 15.3105C11.8837 15.3105 11.8954 15.2615 11.9111 15.2026C12.0425 14.714 12.1171 14.2196 12.1211 13.8233C12.123 13.6271 12.123 13.6271 12.1407 13.6212C12.1367 13.6232 12.1387 13.6232 12.1407 13.6232V13.6232ZM11.868 13.7272C11.8797 13.7389 11.8719 14.1784 11.8562 14.2981C11.8209 14.5846 11.7659 14.8514 11.6757 15.1516C11.6541 15.2241 11.6345 15.285 11.6306 15.2889C11.6227 15.2987 11.3539 15.0358 11.2656 14.9338C11.1126 14.7572 10.9929 14.5806 10.9046 14.408C10.8595 14.3197 10.7889 14.147 10.7947 14.1411C10.8261 14.1196 11.8601 13.7193 11.868 13.7272ZM10.5848 14.2314C10.5868 14.2314 10.5887 14.2314 10.5907 14.2334C10.5946 14.2373 10.6084 14.2687 10.6201 14.304C10.6829 14.4747 10.8241 14.7258 10.9458 14.8867C11.0792 15.0633 11.2539 15.2516 11.399 15.3752C11.4461 15.4145 11.4893 15.4517 11.4951 15.4576C11.5069 15.4694 11.5109 15.4674 11.191 15.5891C10.8203 15.7304 10.4161 15.8716 9.95303 16.0207C9.84242 16.0564 9.73191 16.0923 9.6215 16.1286C9.60382 16.1345 9.60971 16.1247 9.66072 16.0443C9.89027 15.6852 10.2395 14.9809 10.4357 14.4825C10.4691 14.3962 10.5024 14.3099 10.5083 14.2903C10.5162 14.2628 10.5259 14.253 10.5514 14.2392C10.5652 14.2353 10.5789 14.2314 10.5848 14.2314V14.2314ZM10.1924 14.3942C10.1983 14.3982 10.0982 14.6081 10.0001 14.8004C9.80983 15.1712 9.60186 15.5361 9.32326 15.9795C9.27618 16.056 9.23107 16.1267 9.22517 16.1345C9.21537 16.1483 9.21143 16.1443 9.18004 16.0835C9.11333 15.9521 9.05838 15.7833 9.02896 15.6283C8.99952 15.4753 9.00542 15.2085 9.03878 15.0437C9.06426 14.922 9.06233 14.924 9.12118 14.8946C9.37231 14.767 10.1846 14.3864 10.1924 14.3942V14.3942ZM13.5769 14.5316V14.614C13.5769 15.0515 13.5298 15.6519 13.4611 16.0894C13.4493 16.1659 13.4395 16.2287 13.4375 16.2307C13.4375 16.2307 13.3806 16.215 13.3139 16.1954C13.0196 16.1031 12.6998 15.9678 12.4114 15.8089C12.2211 15.7049 11.9445 15.5342 11.9523 15.5263C11.9542 15.5244 12.0367 15.4812 12.1328 15.4302C12.5174 15.2301 12.8862 15.0142 13.206 14.8004C13.3257 14.7199 13.5062 14.5905 13.5455 14.5551L13.5769 14.5316ZM8.71111 15.1123C8.71896 15.1123 8.71699 15.128 8.70522 15.1986C8.69737 15.2497 8.68757 15.3438 8.68367 15.4086C8.66794 15.695 8.71506 15.9069 8.85631 16.1973C8.89555 16.2777 8.92697 16.3444 8.92498 16.3464C8.91123 16.3582 7.61243 16.7388 7.2043 16.8506C7.08267 16.884 6.97674 16.9134 6.96885 16.9154C6.95515 16.9193 6.95317 16.9173 6.95905 16.884C7.00417 16.5956 7.22393 16.2189 7.52999 15.901C7.73404 15.6891 7.8969 15.5655 8.17549 15.4066C8.37561 15.2928 8.68364 15.1221 8.70719 15.1143C8.7072 15.1123 8.70916 15.1123 8.71111 15.1123V15.1123ZM11.7718 15.6597C11.7738 15.6578 11.8209 15.6833 11.8777 15.7166C12.2976 15.9599 12.8823 16.1855 13.3806 16.3013L13.4258 16.3111L13.363 16.3464C13.102 16.4916 12.2446 16.8487 11.3677 17.1763C11.2401 17.2234 11.1145 17.2705 11.091 17.2803C11.0674 17.2901 11.0458 17.296 11.0458 17.2941C11.0458 17.2921 11.0812 17.2234 11.1263 17.139C11.3715 16.6799 11.6188 16.1208 11.7443 15.7323C11.76 15.695 11.7698 15.6617 11.7718 15.6597V15.6597ZM11.4599 15.7617C11.4619 15.7637 11.4461 15.8049 11.4265 15.852C11.2558 16.266 11.0321 16.7173 10.7457 17.2234C10.6731 17.3529 10.6123 17.4569 10.6103 17.4569C10.6084 17.4569 10.5495 17.4216 10.4789 17.3784C10.0629 17.1234 9.69405 16.8095 9.45275 16.5053L9.41742 16.4622L9.59594 16.4131C10.2356 16.2385 10.779 16.0502 11.3186 15.8187C11.3951 15.7873 11.4579 15.7617 11.4599 15.7617V15.7617ZM13.3983 16.4386C13.3983 16.4386 13.4003 16.4406 13.3983 16.4386C13.4003 16.4838 13.3002 16.8879 13.2178 17.1802C13.1491 17.4255 13.0902 17.6178 12.9824 17.9572C12.9353 18.1063 12.8941 18.2299 12.8921 18.2299C12.8901 18.2299 12.8784 18.2279 12.8666 18.224C12.2839 18.1181 11.762 17.9709 11.2715 17.7747C11.1342 17.7198 10.938 17.6315 10.9262 17.6217C10.9223 17.6177 11.04 17.5628 11.1891 17.4981C12.0818 17.1076 13.0079 16.6642 13.3257 16.4739C13.363 16.4504 13.3924 16.4386 13.3983 16.4386V16.4386ZM8.92302 16.5917C8.92695 16.5956 8.67777 16.9546 8.32852 17.4432C8.20689 17.6139 8.06563 17.814 8.01267 17.8885C7.95968 17.9631 7.87925 18.0808 7.83412 18.1514L7.75168 18.279L7.66339 18.2044C7.5594 18.1181 7.37892 17.9337 7.29848 17.8316C7.12973 17.6217 7.01596 17.4 6.97083 17.198C6.94925 17.1038 6.94925 17.0567 6.96884 17.0508C6.99827 17.043 7.52212 16.9193 8.01265 16.8055C8.28537 16.7428 8.60122 16.6682 8.71502 16.6407C8.82883 16.6132 8.92107 16.5917 8.92302 16.5917V16.5917ZM9.17414 16.6878L9.2369 16.7584C9.51947 17.0743 9.80787 17.3078 10.1571 17.5118C10.2199 17.5472 10.267 17.5785 10.263 17.5805C10.2493 17.5903 9.05053 18.0161 8.49529 18.2083C8.18336 18.3182 7.92632 18.4065 7.92438 18.4065C7.92243 18.4065 7.90476 18.3947 7.88511 18.381L7.84981 18.3555L7.9067 18.2731C8.09112 18.0063 8.32267 17.7139 8.82689 17.1057L9.17414 16.6878ZM10.7398 17.8081C10.7418 17.8061 10.8281 17.8375 10.934 17.8768C11.1891 17.9729 11.3912 18.0337 11.6619 18.1024C11.9955 18.1868 12.4781 18.2692 12.7626 18.2927C12.8058 18.2966 12.8293 18.3006 12.8215 18.3065C12.8077 18.3143 12.5193 18.4105 12.3074 18.4772C11.97 18.5831 10.9399 18.8872 10.1002 19.1285C9.94521 19.1736 9.81179 19.2109 9.80394 19.2129C9.78435 19.2168 9.71958 19.1991 9.71958 19.1913C9.71958 19.1874 9.76666 19.1266 9.82357 19.0599C10.1061 18.7224 10.3867 18.3457 10.6201 17.9886C10.6849 17.8905 10.7398 17.8101 10.7398 17.8081ZM10.3945 17.8179C10.3964 17.8199 10.2572 18.0435 10.0139 18.4281C9.90989 18.5909 9.79413 18.7753 9.75292 18.8401C9.71368 18.9029 9.65482 19.001 9.62148 19.0559L9.56458 19.156L9.53515 19.1481C9.4645 19.1285 8.96813 18.9539 8.83667 18.9009C8.67382 18.8362 8.50509 18.7577 8.37951 18.691C8.22258 18.6066 8.02639 18.481 8.04207 18.4771C8.04599 18.4752 8.31479 18.4026 8.6385 18.3143C9.49786 18.0808 9.97461 17.9454 10.2866 17.8473C10.3435 17.8297 10.3925 17.8159 10.3945 17.8179ZM12.8372 18.3908H12.8391C12.847 18.4104 12.5292 19.2933 12.4133 19.5719C12.3879 19.6347 12.3781 19.6504 12.3643 19.6484C12.331 19.6465 11.8699 19.5817 11.5893 19.5405C11.1008 19.466 10.2807 19.3227 10.0747 19.2757L10.0276 19.2659L10.3199 19.1991C10.9478 19.0579 11.2499 18.9813 11.556 18.8872C11.9425 18.7695 12.3251 18.6223 12.7116 18.4418C12.7724 18.4143 12.8234 18.3928 12.8372 18.3908Z" fill="#A91D22"/>
<path d="M11.3795 6.78965C11.3363 6.7838 10.6398 7.03493 10.1905 7.21737C9.58426 7.46461 9.11341 7.70006 8.82302 7.90406C8.71513 7.98061 8.57973 8.11597 8.55818 8.16894C8.55033 8.18856 8.54639 8.2121 8.54639 8.23564L8.80931 8.48482L9.43516 8.68494L10.9243 8.95178L12.6273 9.24412L12.645 9.09697C12.6391 9.09697 12.6352 9.09501 12.6293 9.09501L12.4056 9.05968L12.3605 8.97925C12.129 8.57115 11.8739 8.06495 11.7248 7.72357C11.6091 7.45869 11.4992 7.15265 11.4384 6.9329C11.405 6.79949 11.4011 6.79164 11.3795 6.78969V6.78964H11.3795V6.78965ZM11.3481 6.88974H11.3501C11.352 6.89168 11.3599 6.94665 11.3677 7.01136C11.401 7.28608 11.4619 7.5509 11.558 7.83736C11.6306 8.05319 11.6306 8.04143 11.5463 8.01591C11.3461 7.96099 10.4495 7.80599 9.80011 7.71574C9.69612 7.702 9.60783 7.68827 9.60783 7.68632C9.59998 7.67847 10.0767 7.42928 10.2867 7.3312C10.5555 7.20757 11.2932 6.89954 11.3481 6.88974V6.88974ZM9.45672 7.7687L9.53327 7.79418C9.94919 7.93547 10.9949 8.1356 11.5718 8.18268C11.6365 8.18857 11.6914 8.19447 11.6934 8.19447C11.6953 8.19642 11.6404 8.22585 11.5698 8.25919C11.2912 8.3985 10.9851 8.5692 10.7732 8.70065C10.7105 8.73988 10.6535 8.77129 10.6457 8.77129C10.6379 8.77129 10.5967 8.76343 10.5535 8.75754L10.475 8.74576L10.2788 8.55347C9.93353 8.21799 9.66277 7.95902 9.55878 7.8609L9.45672 7.7687V7.7687ZM9.37827 7.82951L9.65491 8.17483C9.80596 8.36515 9.959 8.55153 9.99239 8.59271C10.0257 8.63394 10.0532 8.66731 10.0512 8.66926C10.0434 8.67514 9.65102 8.59861 9.44302 8.55154C9.22916 8.50248 9.14088 8.47894 9.00943 8.43775L8.90151 8.40242V8.37494C8.90346 8.24348 9.07025 8.04729 9.35277 7.84719L9.37827 7.82951ZM11.7287 8.3004C11.7366 8.3004 11.7464 8.31805 11.7699 8.37102C11.8366 8.51816 12.0446 8.9145 12.0956 8.99101C12.1113 9.01654 12.1388 9.01849 11.8621 8.97336C11.197 8.86543 10.9832 8.83015 10.9832 8.82622C10.9832 8.82427 11.0028 8.81053 11.0283 8.79678C11.2343 8.68301 11.4423 8.53781 11.6267 8.38281C11.6718 8.34552 11.713 8.31021 11.7209 8.30431C11.7228 8.3004 11.7268 8.29844 11.7287 8.3004Z" fill="#A91D22"/>
<path d="M8.57181 8.1416C8.57181 8.1416 8.52867 8.2103 8.56987 8.31233C8.5954 8.37509 8.66994 8.45159 8.75429 8.53009C8.75429 8.53009 9.62737 9.38158 9.73332 9.50324C10.216 10.0604 10.4259 10.6098 10.4455 11.3671C10.4573 11.8537 10.3651 12.2814 10.1355 12.7778C9.72743 13.6685 8.8661 14.6515 7.53784 15.7424L7.73211 15.6776C7.85767 15.5834 8.02837 15.4834 8.4286 15.2636C9.35268 14.7574 10.3925 14.2924 11.6678 13.8137C13.5042 13.1231 16.5237 12.3147 18.2424 12.0519L18.421 12.0244L18.3935 11.9812C18.2366 11.7379 18.1286 11.5869 17.9991 11.426C17.6224 10.959 17.1653 10.5804 16.6061 10.2664C15.837 9.83679 14.8423 9.50129 13.5827 9.25211C13.3453 9.205 12.8234 9.11476 12.3996 9.05002C11.501 8.91075 10.9203 8.8146 10.2807 8.70472C10.0512 8.66547 9.70779 8.60662 9.4802 8.55759C9.36249 8.53205 9.13688 8.47909 8.9603 8.41827C8.81904 8.36331 8.61498 8.30837 8.57181 8.1416V8.1416ZM9.07803 8.63212C9.07997 8.63018 9.11136 8.64192 9.15259 8.65566C9.22714 8.68114 9.32327 8.71058 9.43709 8.74199C9.5232 8.76568 9.60953 8.78856 9.69607 8.81065C9.81378 8.84007 9.91187 8.86754 9.91382 8.86754C9.92758 8.88129 10.1257 9.51496 10.1925 9.75826C10.2179 9.85049 10.2376 9.92895 10.2356 9.92895C10.2336 9.93094 10.2121 9.89757 10.1866 9.85245C9.957 9.44827 9.59403 9.03822 9.17416 8.7086C9.11925 8.66939 9.07803 8.63407 9.07803 8.63212ZM10.0433 8.89895C10.0531 8.89895 10.0963 8.90484 10.1493 8.9166C10.4828 8.99115 11.0812 9.10495 11.4638 9.1697C11.5285 9.1795 11.5796 9.1913 11.5796 9.1952C11.5796 9.19914 11.556 9.21285 11.5266 9.22856C11.4618 9.2619 11.2009 9.41689 11.1146 9.47576C10.8968 9.62094 10.7006 9.7779 10.5593 9.91916C10.5024 9.97606 10.4534 10.0231 10.4534 10.0231C10.4534 10.0231 10.4416 9.98981 10.4318 9.94858C10.3612 9.67586 10.214 9.27168 10.0806 8.98721C10.059 8.9421 10.0413 8.90089 10.0413 8.89698C10.0413 8.9009 10.0413 8.89895 10.0433 8.89895V8.89895ZM11.7424 9.22267C11.7542 9.22658 11.7738 9.2933 11.813 9.44044C11.8856 9.72494 11.919 10.0428 11.9072 10.339C11.9033 10.4214 11.8994 10.4979 11.8954 10.5078L11.8895 10.5274L11.7875 10.494C11.5776 10.4273 11.2362 10.3272 10.9439 10.2449C10.7771 10.1997 10.6418 10.1585 10.6418 10.1546C10.6418 10.1428 10.885 9.89955 10.989 9.80735C11.1871 9.6327 11.7247 9.21677 11.7424 9.22267V9.22267ZM11.8778 9.24227C11.8837 9.23642 12.69 9.37568 13.0569 9.44633C13.3297 9.49929 13.726 9.5817 13.7495 9.59153C13.7613 9.59544 13.7201 9.61898 13.5886 9.67783C13.0707 9.91133 12.6861 10.1212 12.3035 10.3763C12.2035 10.443 12.1191 10.4979 12.1171 10.4979C12.1152 10.4979 12.1132 10.4411 12.1132 10.3724C12.1132 9.99962 12.0387 9.62291 11.9013 9.30508C11.8876 9.27368 11.8758 9.24426 11.8778 9.24227V9.24227ZM13.9634 9.65431C13.9693 9.66019 13.9437 9.81913 13.9202 9.91328C13.8496 10.2056 13.6593 10.6393 13.4258 11.0473C13.3846 11.1199 13.3473 11.1788 13.3433 11.1807C13.3395 11.1827 13.2865 11.1532 13.2256 11.1179C12.9981 10.9845 12.7391 10.859 12.4566 10.7412C12.3781 10.7079 12.3094 10.6804 12.3075 10.6765C12.2937 10.6647 12.9255 10.2468 13.259 10.0467C13.5239 9.88582 13.9555 9.64645 13.9634 9.65431V9.65431ZM14.1125 9.67784C14.1301 9.67784 14.4872 9.77595 14.6736 9.83089C15.1347 9.96824 15.6644 10.1625 16.0097 10.3194L16.1529 10.3842L16.0529 10.4077C15.2092 10.6019 14.4872 10.8256 13.7907 11.1081C13.7338 11.1317 13.6828 11.1513 13.6789 11.1513C13.6749 11.1513 13.6946 11.1062 13.7201 11.0512C13.93 10.6059 14.0654 10.1409 14.0987 9.74454C14.1007 9.70725 14.1066 9.67784 14.1125 9.67784V9.67784ZM10.5574 10.494C10.5632 10.4881 10.836 10.5529 10.9831 10.5941C11.2068 10.6569 11.6816 10.8158 11.6816 10.8276C11.6816 10.8295 11.6286 10.8746 11.5658 10.9296C11.3088 11.1435 11.0616 11.3691 10.7653 11.6555C10.677 11.7399 10.6025 11.8086 10.5986 11.8086C10.5946 11.8086 10.5927 11.7968 10.5946 11.7811C10.6398 11.4515 10.63 11.0277 10.5672 10.598C10.5613 10.5431 10.5554 10.496 10.5574 10.494V10.494ZM16.2883 10.4999C16.2922 10.5038 16.1627 10.7079 16.0803 10.8236C15.9626 10.9924 15.7899 11.2161 15.3995 11.7066C15.1935 11.9655 14.962 12.2579 14.8855 12.356C14.807 12.4541 14.7423 12.5364 14.7403 12.5364C14.7383 12.5364 14.7129 12.5011 14.6854 12.458C14.4656 12.1284 14.2027 11.8399 13.8907 11.581C13.8319 11.5319 13.7672 11.4789 13.7456 11.4632C13.724 11.4476 13.7063 11.4319 13.7063 11.4299C13.7063 11.424 14.0398 11.2808 14.293 11.1788C14.7364 10.9983 15.3406 10.7824 15.7939 10.6431C16.0313 10.5686 16.2844 10.496 16.2883 10.4999V10.4999ZM16.4394 10.5392C16.4472 10.5372 16.4943 10.5607 16.5512 10.5941C17.028 10.8668 17.4949 11.218 17.8638 11.579C17.9678 11.681 18.2248 11.9479 18.2208 11.9498C18.2208 11.9498 18.1306 11.9577 18.0247 11.9655C17.1987 12.0283 16.1412 12.2029 15.1249 12.4481C15.0562 12.4638 14.9954 12.4776 14.9914 12.4776C14.9876 12.4776 15.064 12.4011 15.1602 12.3089C15.7566 11.734 16.0294 11.371 16.3511 10.7236C16.3962 10.6275 16.4355 10.545 16.4394 10.5392C16.4374 10.5392 16.4374 10.5392 16.4394 10.5392V10.5392ZM12.07 10.9865C12.0975 10.9924 12.3526 11.1121 12.5448 11.2082C12.7214 11.2965 12.9863 11.4378 13 11.4495C13.002 11.4515 12.9078 11.5005 12.7921 11.5574C12.4232 11.7418 12.1073 11.9164 11.7777 12.1166C11.6835 12.1735 11.6051 12.2206 11.6031 12.2206C11.5953 12.2206 11.5972 12.2127 11.6502 12.1166C11.8268 11.7948 11.968 11.4103 12.0485 11.0355C12.0563 11.0061 12.0642 10.9865 12.07 10.9865V10.9865ZM11.815 11.0336C11.8209 11.0395 11.7542 11.2808 11.713 11.4122C11.6325 11.6614 11.4971 11.9734 11.3657 12.2088C11.3343 12.2637 11.2872 12.3442 11.2617 12.3893L11.2127 12.4678L11.1028 12.3618C10.9753 12.2382 10.8713 12.1617 10.7379 12.093C10.6849 12.0656 10.6437 12.042 10.6437 12.0381C10.6437 12.0224 10.9792 11.7183 11.2362 11.4986C11.4206 11.3396 11.8091 11.0277 11.815 11.0336V11.0336ZM13.3748 11.6752L13.4709 11.7379C13.6906 11.8812 13.9496 12.0715 14.1478 12.2382C14.2596 12.3304 14.4754 12.5247 14.5186 12.5718L14.5421 12.5973L14.3832 12.6424C13.4846 12.8916 12.7901 13.1133 11.9798 13.4115C11.8895 13.4448 11.813 13.4723 11.8071 13.4723C11.7954 13.4723 11.7855 13.4821 11.9877 13.2957C12.5056 12.819 12.9647 12.2932 13.3061 11.7811L13.3748 11.6752V11.6752ZM12.9647 11.7772C12.9686 11.7811 12.6998 12.1597 12.5389 12.3736C12.3467 12.6287 12.0053 13.0564 11.7699 13.3349C11.6718 13.4507 11.5874 13.5469 11.5835 13.5488C11.5776 13.5508 11.5756 13.5214 11.5756 13.4762C11.5756 13.2388 11.5148 12.9857 11.4089 12.7699C11.3637 12.6797 11.3559 12.6581 11.3657 12.6483C11.403 12.6149 11.9739 12.2892 12.3349 12.095C12.5782 11.9655 12.9588 11.7732 12.9647 11.7772V11.7772ZM10.4848 12.3854C10.4906 12.3854 10.5358 12.4089 10.5868 12.4364C10.7124 12.5051 10.8242 12.5816 10.9242 12.664C10.9282 12.6679 10.8772 12.7091 10.8105 12.7581C10.6241 12.8916 10.3415 13.1054 10.1768 13.2369C10.0041 13.3742 9.99822 13.3782 10.0178 13.3487C10.1473 13.1506 10.212 13.0387 10.2807 12.8955C10.3415 12.768 10.4024 12.6169 10.4455 12.4855C10.4612 12.4286 10.4808 12.3854 10.4848 12.3854ZM11.146 12.9033C11.1557 12.9014 11.1676 12.919 11.2205 12.9975C11.3323 13.1643 11.4187 13.388 11.4403 13.5685L11.4442 13.6077L11.1754 13.7117C10.6947 13.8981 10.2513 14.0825 9.95109 14.2198C9.86675 14.2591 9.71959 14.3297 9.62347 14.3768C9.52732 14.4258 9.44884 14.4631 9.44884 14.4612C9.44884 14.4592 9.50965 14.4141 9.5842 14.3591C10.1709 13.9334 10.679 13.4664 11.0596 12.9995C11.1008 12.9504 11.1381 12.9053 11.142 12.9033L11.146 12.9033V12.9033ZM10.8419 12.9779C10.8497 12.9858 10.6261 13.2388 10.473 13.3938C10.0944 13.7804 9.71961 14.0825 9.2546 14.3768C9.19575 14.4141 9.14279 14.4474 9.13689 14.4514C9.12315 14.4592 9.1408 14.4396 9.34485 14.2179C9.47436 14.0786 9.57244 13.9609 9.68428 13.8157C9.75883 13.7196 9.77257 13.7058 9.8805 13.6293C10.1689 13.4213 10.834 12.97 10.8419 12.9779Z" fill="#A91D22"/>
</svg>
