<svg width="187" height="28" viewBox="0 0 187 28" fill="none" xmlns="http://www.w3.org/2000/svg">
<rect width="187" height="28" fill="#68217A"/>
<g clip-path="url(#clip0_101_21)">
<path d="M26.0816 24.9981L16.7354 15.9092L11.1244 20.1882L9 19.1197V7.88896L11.1369 6.81467L16.7517 11.0975L26.0749 2L31.419 4.14571V22.8629L26.0825 25L26.0816 24.9981ZM25.543 9.4865L20.2085 13.4856L25.5459 17.5125L25.543 9.4865ZM11.6668 11.1013V15.9083L14.3326 13.4885L11.6668 11.1013Z" fill="white"/>
</g>
<path d="M50.1982 22L44.0967 6.25195H46.3525L50.4453 17.6924C50.7747 18.609 51.0505 19.4684 51.2725 20.2705C51.516 19.4111 51.7988 18.5518 52.1211 17.6924L56.375 6.25195H58.502L52.3359 22H50.1982ZM59.7266 8.47559V6.25195H61.6602V8.47559H59.7266ZM59.7266 22V10.5918H61.6602V22H59.7266ZM63.8408 18.5947L65.7529 18.2939C65.8604 19.0602 66.1576 19.6475 66.6445 20.0557C67.1387 20.4639 67.8262 20.668 68.707 20.668C69.5951 20.668 70.2539 20.4889 70.6836 20.1309C71.1133 19.7656 71.3281 19.3395 71.3281 18.8525C71.3281 18.4157 71.1383 18.0719 70.7588 17.8213C70.4938 17.6494 69.835 17.431 68.7822 17.166C67.3643 16.8079 66.3796 16.5 65.8281 16.2422C65.2839 15.9772 64.8685 15.6156 64.582 15.1572C64.3027 14.6917 64.1631 14.1797 64.1631 13.6211C64.1631 13.1126 64.2777 12.6436 64.5068 12.2139C64.7432 11.777 65.0618 11.4154 65.4629 11.1289C65.7637 10.9069 66.1719 10.7207 66.6875 10.5703C67.2103 10.4128 67.7689 10.334 68.3633 10.334C69.2585 10.334 70.0426 10.4629 70.7158 10.7207C71.3962 10.9785 71.8975 11.3294 72.2197 11.7734C72.542 12.2103 72.764 12.7975 72.8857 13.5352L70.9951 13.793C70.9092 13.2057 70.6585 12.7474 70.2432 12.418C69.835 12.0885 69.2549 11.9238 68.5029 11.9238C67.6149 11.9238 66.9811 12.0706 66.6016 12.3643C66.222 12.6579 66.0322 13.0016 66.0322 13.3955C66.0322 13.6462 66.111 13.8717 66.2686 14.0723C66.4261 14.2799 66.6732 14.4518 67.0098 14.5879C67.2031 14.6595 67.7725 14.8242 68.7178 15.082C70.0856 15.4473 71.0381 15.748 71.5752 15.9844C72.1195 16.2135 72.5456 16.5501 72.8535 16.9941C73.1615 17.4382 73.3154 17.9896 73.3154 18.6484C73.3154 19.293 73.1257 19.9017 72.7461 20.4746C72.3737 21.0404 71.833 21.4808 71.124 21.7959C70.415 22.1038 69.613 22.2578 68.7178 22.2578C67.2354 22.2578 66.1038 21.9499 65.3232 21.334C64.5498 20.7181 64.0557 19.805 63.8408 18.5947ZM83.0908 22V20.3242C82.2028 21.6133 80.9961 22.2578 79.4707 22.2578C78.7975 22.2578 78.1673 22.1289 77.5801 21.8711C77 21.6133 76.5667 21.291 76.2803 20.9043C76.001 20.5104 75.804 20.0306 75.6895 19.4648C75.6107 19.0853 75.5713 18.4837 75.5713 17.6602V10.5918H77.5049V16.9189C77.5049 17.9287 77.5443 18.609 77.623 18.96C77.7448 19.4684 78.0026 19.8695 78.3965 20.1631C78.7904 20.4495 79.2773 20.5928 79.8574 20.5928C80.4375 20.5928 80.9818 20.446 81.4902 20.1523C81.9987 19.8516 82.3568 19.4469 82.5645 18.9385C82.7793 18.4229 82.8867 17.6781 82.8867 16.7041V10.5918H84.8203V22H83.0908ZM95.3047 20.5928C94.5885 21.2015 93.8975 21.6312 93.2314 21.8818C92.5726 22.1325 91.8636 22.2578 91.1045 22.2578C89.8512 22.2578 88.888 21.9535 88.2148 21.3447C87.5417 20.7288 87.2051 19.9447 87.2051 18.9922C87.2051 18.4336 87.3304 17.9251 87.5811 17.4668C87.8389 17.0013 88.1719 16.6289 88.5801 16.3496C88.9954 16.0703 89.4609 15.859 89.9766 15.7158C90.3561 15.6156 90.929 15.5189 91.6953 15.4258C93.2565 15.2396 94.4059 15.0176 95.1436 14.7598C95.1507 14.4948 95.1543 14.3265 95.1543 14.2549C95.1543 13.4671 94.9717 12.9121 94.6064 12.5898C94.1123 12.153 93.3783 11.9346 92.4043 11.9346C91.4948 11.9346 90.8216 12.0957 90.3848 12.418C89.9551 12.7331 89.6364 13.2952 89.4287 14.1045L87.5381 13.8467C87.71 13.0374 87.9928 12.3857 88.3867 11.8916C88.7806 11.3903 89.3499 11.0072 90.0947 10.7422C90.8395 10.4701 91.7025 10.334 92.6836 10.334C93.6576 10.334 94.4489 10.4486 95.0576 10.6777C95.6663 10.9069 96.1139 11.1969 96.4004 11.5479C96.6868 11.8916 96.8874 12.3285 97.002 12.8584C97.0664 13.1878 97.0986 13.7822 97.0986 14.6416V17.2197C97.0986 19.0173 97.138 20.1559 97.2168 20.6357C97.3027 21.1084 97.4674 21.5632 97.7109 22H95.6914C95.4909 21.599 95.362 21.1299 95.3047 20.5928ZM95.1436 16.2744C94.4417 16.5609 93.389 16.8044 91.9854 17.0049C91.1904 17.1195 90.6283 17.2484 90.2988 17.3916C89.9694 17.5348 89.7152 17.7461 89.5361 18.0254C89.3571 18.2975 89.2676 18.6019 89.2676 18.9385C89.2676 19.4541 89.4609 19.8838 89.8477 20.2275C90.2415 20.5713 90.8145 20.7432 91.5664 20.7432C92.3112 20.7432 92.9736 20.582 93.5537 20.2598C94.1338 19.9303 94.5599 19.4827 94.832 18.917C95.0397 18.4801 95.1436 17.8356 95.1436 16.9834V16.2744ZM100.063 22V6.25195H101.997V22H100.063ZM110.666 16.9404L112.632 16.7686C112.725 17.5563 112.94 18.2044 113.276 18.7129C113.62 19.2142 114.15 19.6224 114.866 19.9375C115.582 20.2454 116.388 20.3994 117.283 20.3994C118.078 20.3994 118.78 20.2812 119.389 20.0449C119.997 19.8086 120.449 19.4863 120.742 19.0781C121.043 18.6628 121.193 18.2116 121.193 17.7246C121.193 17.2305 121.05 16.8008 120.764 16.4355C120.477 16.0632 120.005 15.7516 119.346 15.501C118.923 15.3363 117.989 15.082 116.542 14.7383C115.095 14.3874 114.082 14.0579 113.502 13.75C112.75 13.3561 112.188 12.8691 111.815 12.2891C111.45 11.7018 111.268 11.0465 111.268 10.3232C111.268 9.52832 111.493 8.78711 111.944 8.09961C112.396 7.40495 113.054 6.87858 113.921 6.52051C114.787 6.16243 115.751 5.9834 116.811 5.9834C117.978 5.9834 119.006 6.17318 119.894 6.55273C120.789 6.92513 121.476 7.47656 121.956 8.20703C122.436 8.9375 122.694 9.76465 122.729 10.6885L120.731 10.8389C120.624 9.84342 120.259 9.09147 119.636 8.58301C119.02 8.07454 118.107 7.82031 116.896 7.82031C115.636 7.82031 114.716 8.05306 114.136 8.51855C113.563 8.97689 113.276 9.5319 113.276 10.1836C113.276 10.7493 113.48 11.2148 113.889 11.5801C114.29 11.9453 115.335 12.3213 117.025 12.708C118.723 13.0876 119.886 13.4206 120.517 13.707C121.433 14.1296 122.11 14.6667 122.547 15.3184C122.984 15.9629 123.202 16.7077 123.202 17.5527C123.202 18.3906 122.962 19.182 122.482 19.9268C122.003 20.6644 121.312 21.2409 120.409 21.6562C119.514 22.0645 118.504 22.2686 117.38 22.2686C115.955 22.2686 114.759 22.0609 113.792 21.6455C112.832 21.2301 112.077 20.6071 111.525 19.7764C110.981 18.9385 110.695 17.9932 110.666 16.9404ZM130.023 20.2705L130.303 21.9785C129.758 22.0931 129.271 22.1504 128.842 22.1504C128.14 22.1504 127.596 22.0394 127.209 21.8174C126.822 21.5954 126.55 21.3053 126.393 20.9473C126.235 20.582 126.156 19.8193 126.156 18.6592V12.0957H124.738V10.5918H126.156V7.7666L128.079 6.60645V10.5918H130.023V12.0957H128.079V18.7666C128.079 19.318 128.111 19.6725 128.176 19.8301C128.247 19.9876 128.358 20.113 128.509 20.2061C128.666 20.2992 128.888 20.3457 129.175 20.3457C129.39 20.3457 129.673 20.3206 130.023 20.2705ZM139.401 22V20.3242C138.513 21.6133 137.307 22.2578 135.781 22.2578C135.108 22.2578 134.478 22.1289 133.891 21.8711C133.311 21.6133 132.877 21.291 132.591 20.9043C132.312 20.5104 132.115 20.0306 132 19.4648C131.921 19.0853 131.882 18.4837 131.882 17.6602V10.5918H133.815V16.9189C133.815 17.9287 133.855 18.609 133.934 18.96C134.055 19.4684 134.313 19.8695 134.707 20.1631C135.101 20.4495 135.588 20.5928 136.168 20.5928C136.748 20.5928 137.292 20.446 137.801 20.1523C138.309 19.8516 138.667 19.4469 138.875 18.9385C139.09 18.4229 139.197 17.6781 139.197 16.7041V10.5918H141.131V22H139.401ZM151.572 22V20.5605C150.849 21.6921 149.785 22.2578 148.382 22.2578C147.472 22.2578 146.634 22.0072 145.868 21.5059C145.109 21.0046 144.518 20.3063 144.096 19.4111C143.68 18.5088 143.473 17.474 143.473 16.3066C143.473 15.168 143.662 14.1367 144.042 13.2129C144.422 12.2819 144.991 11.5693 145.75 11.0752C146.509 10.5811 147.358 10.334 148.296 10.334C148.983 10.334 149.596 10.4808 150.133 10.7744C150.67 11.0609 151.107 11.4368 151.443 11.9023V6.25195H153.366V22H151.572ZM145.46 16.3066C145.46 17.7676 145.768 18.8597 146.384 19.583C147 20.3063 147.727 20.668 148.564 20.668C149.41 20.668 150.126 20.3242 150.713 19.6367C151.307 18.9421 151.604 17.8857 151.604 16.4678C151.604 14.9066 151.304 13.7607 150.702 13.0303C150.101 12.2998 149.359 11.9346 148.479 11.9346C147.619 11.9346 146.899 12.2855 146.319 12.9873C145.746 13.6891 145.46 14.7956 145.46 16.3066ZM156.428 8.47559V6.25195H158.361V8.47559H156.428ZM156.428 22V10.5918H158.361V22H156.428ZM160.596 16.2959C160.596 14.1833 161.183 12.6185 162.357 11.6016C163.339 10.7565 164.535 10.334 165.945 10.334C167.514 10.334 168.796 10.8496 169.791 11.8809C170.786 12.9049 171.284 14.3229 171.284 16.1348C171.284 17.6029 171.062 18.7594 170.618 19.6045C170.181 20.4424 169.54 21.0941 168.695 21.5596C167.857 22.0251 166.941 22.2578 165.945 22.2578C164.348 22.2578 163.056 21.7458 162.067 20.7217C161.086 19.6976 160.596 18.2223 160.596 16.2959ZM162.583 16.2959C162.583 17.7568 162.902 18.8525 163.539 19.583C164.176 20.3063 164.979 20.668 165.945 20.668C166.905 20.668 167.703 20.3027 168.341 19.5723C168.978 18.8418 169.297 17.7282 169.297 16.2314C169.297 14.8206 168.975 13.7536 168.33 13.0303C167.693 12.2998 166.898 11.9346 165.945 11.9346C164.979 11.9346 164.176 12.2962 163.539 13.0195C162.902 13.7428 162.583 14.835 162.583 16.2959Z" fill="white"/>
<defs>
<clipPath id="clip0_101_21">
<rect width="22" height="23" fill="white" transform="translate(9 2)"/>
</clipPath>
</defs>
</svg>
