<svg width="127" height="28" viewBox="0 0 127 28" fill="none" xmlns="http://www.w3.org/2000/svg">
<g clip-path="url(#clip0_114_49)">
<path d="M126.5 0H0V28H126.5V0Z" fill="#68217A"/>
<path d="M43.9141 10.2295L41.2627 17.5H39.1631L36.5117 10.2295H38.4795L40.2373 15.3369L41.9951 10.2295H43.9141ZM46.6191 17.5H44.8613V12.0166H46.6191V17.5ZM46.668 11.2354H44.8125V9.90234H46.668V11.2354ZM53.0449 15.7617C53.0449 16.3281 52.791 16.7855 52.2832 17.1338C51.7754 17.4788 51.0804 17.6514 50.1982 17.6514C49.71 17.6514 49.2673 17.6058 48.8701 17.5146C48.473 17.4235 48.154 17.3226 47.9131 17.2119V15.7666H48.0742C48.1621 15.8285 48.263 15.8968 48.377 15.9717C48.4941 16.0433 48.6585 16.1214 48.8701 16.2061C49.0524 16.2809 49.2591 16.346 49.4902 16.4014C49.7214 16.4535 49.9688 16.4795 50.2324 16.4795C50.5775 16.4795 50.833 16.4421 50.999 16.3672C51.165 16.2891 51.248 16.1751 51.248 16.0254C51.248 15.8919 51.1992 15.7959 51.1016 15.7373C51.0039 15.6755 50.8184 15.6169 50.5449 15.5615C50.4147 15.5322 50.2373 15.5013 50.0127 15.4688C49.7913 15.4329 49.5895 15.3906 49.4072 15.3418C48.9092 15.2116 48.5397 15.0098 48.2988 14.7363C48.0579 14.4596 47.9375 14.1162 47.9375 13.7061C47.9375 13.1787 48.1865 12.7409 48.6846 12.3926C49.1859 12.041 49.8695 11.8652 50.7354 11.8652C51.1455 11.8652 51.5378 11.9076 51.9121 11.9922C52.2897 12.0736 52.5843 12.1615 52.7959 12.2559V13.6426H52.6445C52.3841 13.4635 52.0863 13.3187 51.751 13.208C51.4189 13.0941 51.082 13.0371 50.7402 13.0371C50.457 13.0371 50.2178 13.0762 50.0225 13.1543C49.8304 13.2324 49.7344 13.3431 49.7344 13.4863C49.7344 13.6165 49.7783 13.7158 49.8662 13.7842C49.9541 13.8525 50.1608 13.9209 50.4863 13.9893C50.6654 14.0251 50.8574 14.0609 51.0625 14.0967C51.2708 14.1292 51.4792 14.1715 51.6875 14.2236C52.1497 14.3441 52.4915 14.5345 52.7129 14.7949C52.9342 15.0521 53.0449 15.3743 53.0449 15.7617ZM59.6807 17.5H57.9229V16.8945C57.5973 17.1419 57.2995 17.3307 57.0293 17.4609C56.7591 17.5879 56.4368 17.6514 56.0625 17.6514C55.457 17.6514 54.9899 17.4772 54.6611 17.1289C54.3356 16.7806 54.1729 16.2663 54.1729 15.5859V12.0166H55.9404V14.7363C55.9404 15.013 55.9486 15.2441 55.9648 15.4297C55.9844 15.612 56.0267 15.7633 56.0918 15.8838C56.1536 16.0042 56.2464 16.0921 56.3701 16.1475C56.4971 16.2028 56.6729 16.2305 56.8975 16.2305C57.0472 16.2305 57.2132 16.2028 57.3955 16.1475C57.5778 16.0921 57.7536 16.0107 57.9229 15.9033V12.0166H59.6807V17.5ZM64.666 16.0693V14.9268C64.4284 14.9463 64.1712 14.974 63.8945 15.0098C63.6178 15.0423 63.4079 15.0814 63.2646 15.127C63.0889 15.1823 62.9538 15.2637 62.8594 15.3711C62.7682 15.4753 62.7227 15.6136 62.7227 15.7861C62.7227 15.9001 62.7324 15.9928 62.752 16.0645C62.7715 16.1361 62.8203 16.2044 62.8984 16.2695C62.9733 16.3346 63.0628 16.3835 63.167 16.416C63.2712 16.4453 63.4339 16.46 63.6553 16.46C63.8311 16.46 64.0085 16.4242 64.1875 16.3525C64.3698 16.2809 64.5293 16.1865 64.666 16.0693ZM64.666 16.9189C64.5716 16.9906 64.4544 17.0768 64.3145 17.1777C64.1745 17.2786 64.0426 17.3584 63.9189 17.417C63.7464 17.4951 63.5674 17.5521 63.3818 17.5879C63.1963 17.627 62.9928 17.6465 62.7715 17.6465C62.2507 17.6465 61.8145 17.4854 61.4629 17.1631C61.1113 16.8408 60.9355 16.429 60.9355 15.9277C60.9355 15.5273 61.0251 15.2002 61.2041 14.9463C61.3831 14.6924 61.637 14.4922 61.9658 14.3457C62.2913 14.1992 62.695 14.0951 63.1768 14.0332C63.6585 13.9714 64.1582 13.9258 64.6758 13.8965V13.8672C64.6758 13.5645 64.5521 13.3561 64.3047 13.2422C64.0573 13.125 63.6927 13.0664 63.2109 13.0664C62.9212 13.0664 62.612 13.1185 62.2832 13.2227C61.9544 13.3236 61.7184 13.4017 61.5752 13.457H61.4141V12.1338C61.5996 12.085 61.9007 12.028 62.3174 11.9629C62.7373 11.8945 63.1572 11.8604 63.5771 11.8604C64.5765 11.8604 65.2975 12.015 65.7402 12.3242C66.1862 12.6302 66.4092 13.112 66.4092 13.7695V17.5H64.666V16.9189ZM69.7832 17.5H68.0254V9.90234H69.7832V17.5ZM80.7793 15.2148C80.7793 15.931 80.4749 16.5137 79.8662 16.9629C79.2607 17.4089 78.4372 17.6318 77.3955 17.6318C76.7933 17.6318 76.2676 17.5798 75.8184 17.4756C75.3724 17.3682 74.9541 17.2331 74.5635 17.0703V15.3271H74.7686C75.1559 15.6364 75.5889 15.874 76.0674 16.04C76.5492 16.2061 77.0114 16.2891 77.4541 16.2891C77.568 16.2891 77.7178 16.2793 77.9033 16.2598C78.0889 16.2402 78.2402 16.2077 78.3574 16.1621C78.5007 16.1035 78.6178 16.0303 78.709 15.9424C78.8034 15.8545 78.8506 15.7243 78.8506 15.5518C78.8506 15.3923 78.7822 15.2555 78.6455 15.1416C78.512 15.0244 78.3151 14.9349 78.0547 14.873C77.7812 14.8079 77.4915 14.7477 77.1855 14.6924C76.8828 14.6338 76.598 14.5605 76.3311 14.4727C75.7191 14.2741 75.278 14.0055 75.0078 13.667C74.7409 13.3252 74.6074 12.902 74.6074 12.3975C74.6074 11.7204 74.9102 11.1686 75.5156 10.7422C76.1243 10.3125 76.9056 10.0977 77.8594 10.0977C78.3379 10.0977 78.8099 10.1449 79.2754 10.2393C79.7441 10.3304 80.1494 10.446 80.4912 10.5859V12.2607H80.291C79.998 12.0264 79.6383 11.8311 79.2119 11.6748C78.7887 11.5153 78.3558 11.4355 77.9131 11.4355C77.7568 11.4355 77.6006 11.4469 77.4443 11.4697C77.2913 11.4893 77.1432 11.5283 77 11.5869C76.873 11.6357 76.764 11.7106 76.6729 11.8115C76.5817 11.9092 76.5361 12.0215 76.5361 12.1484C76.5361 12.3405 76.6094 12.4886 76.7559 12.5928C76.9023 12.6937 77.179 12.7865 77.5859 12.8711C77.8529 12.9264 78.1084 12.9801 78.3525 13.0322C78.5999 13.0843 78.8652 13.1559 79.1484 13.2471C79.7051 13.4294 80.1152 13.6784 80.3789 13.9941C80.6458 14.3066 80.7793 14.7135 80.7793 15.2148ZM85.4766 17.4512C85.2878 17.5 85.0876 17.5374 84.876 17.5635C84.6644 17.5928 84.4056 17.6074 84.0996 17.6074C83.416 17.6074 82.9066 17.4691 82.5713 17.1924C82.2393 16.9157 82.0732 16.4421 82.0732 15.7715V13.208H81.3506V12.0166H82.0732V10.4492H83.8311V12.0166H85.4766V13.208H83.8311V15.1514C83.8311 15.3434 83.8327 15.5111 83.8359 15.6543C83.8392 15.7975 83.8652 15.9261 83.9141 16.04C83.9596 16.154 84.0394 16.2451 84.1533 16.3135C84.2705 16.3786 84.4398 16.4111 84.6611 16.4111C84.7523 16.4111 84.8711 16.3916 85.0176 16.3525C85.1673 16.3135 85.2715 16.2777 85.3301 16.2451H85.4766V17.4512ZM91.9951 17.5H90.2373V16.8945C89.9118 17.1419 89.6139 17.3307 89.3438 17.4609C89.0736 17.5879 88.7513 17.6514 88.377 17.6514C87.7715 17.6514 87.3044 17.4772 86.9756 17.1289C86.6501 16.7806 86.4873 16.2663 86.4873 15.5859V12.0166H88.2549V14.7363C88.2549 15.013 88.263 15.2441 88.2793 15.4297C88.2988 15.612 88.3411 15.7633 88.4062 15.8838C88.4681 16.0042 88.5609 16.0921 88.6846 16.1475C88.8115 16.2028 88.9873 16.2305 89.2119 16.2305C89.3617 16.2305 89.5277 16.2028 89.71 16.1475C89.8923 16.0921 90.068 16.0107 90.2373 15.9033V12.0166H91.9951V17.5ZM98.9922 17.5H97.2344V16.9287C96.9316 17.1761 96.6484 17.3584 96.3848 17.4756C96.1211 17.5928 95.8167 17.6514 95.4717 17.6514C94.8044 17.6514 94.2705 17.3942 93.8701 16.8799C93.4697 16.3656 93.2695 15.6722 93.2695 14.7998C93.2695 14.3343 93.3363 13.9225 93.4697 13.5645C93.6064 13.2031 93.792 12.8939 94.0264 12.6367C94.2477 12.3926 94.5163 12.2038 94.832 12.0703C95.1478 11.9336 95.4635 11.8652 95.7793 11.8652C96.1081 11.8652 96.3766 11.901 96.585 11.9727C96.7965 12.041 97.013 12.1289 97.2344 12.2363V9.90234H98.9922V17.5ZM97.2344 15.9863V13.2959C97.1107 13.2438 96.9805 13.2064 96.8438 13.1836C96.707 13.1608 96.5817 13.1494 96.4678 13.1494C96.0055 13.1494 95.6589 13.2943 95.4277 13.584C95.1966 13.8704 95.0811 14.2692 95.0811 14.7803C95.0811 15.3174 95.1738 15.708 95.3594 15.9521C95.5449 16.193 95.8428 16.3135 96.2529 16.3135C96.4124 16.3135 96.5817 16.2842 96.7607 16.2256C96.9398 16.1637 97.0977 16.084 97.2344 15.9863ZM102.41 17.5H100.652V12.0166H102.41V17.5ZM102.459 11.2354H100.604V9.90234H102.459V11.2354ZM109.676 14.7607C109.676 15.6624 109.412 16.3737 108.885 16.8945C108.361 17.4121 107.623 17.6709 106.673 17.6709C105.722 17.6709 104.983 17.4121 104.456 16.8945C103.932 16.3737 103.67 15.6624 103.67 14.7607C103.67 13.8525 103.934 13.1396 104.461 12.6221C104.992 12.1045 105.729 11.8457 106.673 11.8457C107.63 11.8457 108.369 12.1061 108.89 12.627C109.414 13.1478 109.676 13.859 109.676 14.7607ZM107.513 16.0938C107.627 15.9538 107.711 15.7861 107.767 15.5908C107.825 15.3923 107.854 15.1188 107.854 14.7705C107.854 14.4482 107.825 14.1781 107.767 13.96C107.708 13.7419 107.627 13.5677 107.522 13.4375C107.418 13.304 107.293 13.2096 107.146 13.1543C107 13.099 106.842 13.0713 106.673 13.0713C106.504 13.0713 106.352 13.0941 106.219 13.1396C106.089 13.1852 105.963 13.2764 105.843 13.4131C105.735 13.54 105.649 13.7142 105.584 13.9355C105.522 14.1569 105.491 14.4352 105.491 14.7705C105.491 15.07 105.519 15.3304 105.574 15.5518C105.63 15.7699 105.711 15.9456 105.818 16.0791C105.923 16.2061 106.046 16.2988 106.189 16.3574C106.336 16.416 106.502 16.4453 106.688 16.4453C106.847 16.4453 106.998 16.4193 107.142 16.3672C107.288 16.3118 107.412 16.2207 107.513 16.0938Z" fill="white"/>
<g clip-path="url(#clip1_114_49)">
<path d="M20.8701 20.9987L14.9225 15.0712L11.3519 17.8619L10 17.165V9.84062L11.3598 9.14L14.9329 11.9331L20.8658 6L24.2666 7.39938V19.6063L20.8707 21L20.8701 20.9987ZM20.5274 10.8825L17.1327 13.4906L20.5292 16.1169L20.5274 10.8825ZM11.697 11.9356V15.0706L13.3935 13.4925L11.697 11.9356Z" fill="white"/>
</g>
</g>
<defs>
<clipPath id="clip0_114_49">
<rect width="126.5" height="28" fill="white"/>
</clipPath>
<clipPath id="clip1_114_49">
<rect width="14" height="15" fill="white" transform="translate(10 6)"/>
</clipPath>
</defs>
</svg>
